<svg width="100" height="100" viewBox="0 0 100 100" fill="none" xmlns="http://www.w3.org/2000/svg">
<circle cx="50" cy="50" r="50" fill="black"/>
<path d="M82.2348 18.378C83.6692 18.5821 84.6425 19.016 85.1547 19.6794C85.7182 20.3429 86 21.2105 86 22.2823C86 25.8038 84.1046 27.437 80.3138 27.1818L77.6243 26.9522C74.6019 26.697 71.5795 26.4928 68.5571 26.3397C65.5859 26.1866 62.461 26.11 59.1825 26.11H55.7247C55.1099 33.6635 54.4696 40.5534 53.8036 46.7799L67.0203 46.5502C68.9157 46.5502 70.1708 46.882 70.7855 47.5455C71.4514 48.2089 71.7844 49.1021 71.7844 50.2249C71.7844 51.9601 71.2721 53.3381 70.2476 54.3589C69.2231 55.3286 67.7631 55.8134 65.8677 55.8134H52.7279L52.2668 59.1053C51.191 67.5263 48.8858 73.5231 45.3511 77.0957C41.8677 80.6683 37.0523 82.4546 30.905 82.4546C27.4216 82.4546 24.2199 81.7145 21.2999 80.2345C18.3799 78.7034 16.2284 76.866 14.8453 74.7225C14.2818 73.8549 14 72.8086 14 71.5837C14 70.3589 14.2818 69.2871 14.8453 68.3684C15.46 67.4498 16.2028 66.9904 17.0736 66.9904C17.6884 66.9904 18.2775 67.1946 18.841 67.6029C19.4557 68.0112 20.2241 68.8022 21.1462 69.9761C23.6051 73.1914 26.6531 74.799 30.2903 74.799C33.2102 74.799 35.6435 73.6252 37.5902 71.2775C39.588 68.8788 40.8687 65.1276 41.4322 60.0239L41.8933 55.8134H38.2049C37.0267 55.8134 36.0021 55.4817 35.1313 54.8182C34.3116 54.1547 33.9018 53.2105 33.9018 51.9857C33.9018 50.4035 34.3116 49.2042 35.1313 48.3876C35.9509 47.5199 37.1547 47.0861 38.7428 47.0861C40.1772 47.0861 41.5859 47.0606 42.969 47.0096C43.5838 41.3955 44.2497 34.5821 44.9669 26.5694C39.4344 27.0797 35.5411 27.9729 33.2871 29.2488C31.0331 30.5247 29.9061 32.4131 29.9061 34.9139C29.9061 36.6491 30.4184 38.3078 31.4429 39.89C31.7503 40.3493 31.9039 40.8086 31.9039 41.2679C31.9039 42.1866 31.3917 43.0032 30.3671 43.7177C29.3426 44.3812 28.19 44.7129 26.9093 44.7129C25.5261 44.7129 24.3479 44.3046 23.3746 43.488C22.7599 42.9777 22.1708 41.9314 21.6073 40.3493C21.0438 38.7671 20.762 37.0064 20.762 35.067C20.762 28.7384 24.0149 24.1451 30.5208 21.2871C37.0779 18.429 46.6318 17 59.1825 17C67.8911 17 75.5752 17.4593 82.2348 18.378Z" fill="white"/>
</svg>
