<svg xmlns="http://www.w3.org/2000/svg" viewBox="0 0 256 256">
	<path
		d="M196.809 19.157c-3.143 0-5.907-2.159-5.907-5.871 0-3.703 2.773-5.862 5.907-5.862 3.107 0 5.871 2.168 5.871 5.862.009 3.712-2.764 5.871-5.871 5.871z"
		fill="#000" />
	<path
		d="M196.809 8.789c-2.348 0-4.218 1.797-4.218 4.498s1.87 4.516 4.218 4.516c2.258 0 4.182-1.816 4.182-4.516s-1.924-4.498-4.182-4.498z"
		fill="#fff" />
	<path
		d="M196.845 29.96a104.77 104.77 0 0 0-31.63-21.939C153.386 2.739 140.577.006 127.622 0a92.58 92.58 0 0 0-42.297 10.252c-12.835 6.53-24.342 15.833-34.187 27.675-20.07 24.116-31.125 56.099-31.125 90.069 0 37.918 13.991 73.649 38.387 98.036 9.1 9.208 19.828 16.649 31.64 21.948 11.828 5.287 24.637 8.02 37.593 8.02a92.12 92.12 0 0 0 37.592-8.02c11.534-5.094 22.174-12.491 31.63-21.948 24.396-24.387 38.387-60.118 38.387-98.036-.009-37.908-14-73.639-38.396-98.035z"
		fill="#000" />
	<path
		d="M127.622 253.742a90.14 90.14 0 0 0 36.68-7.813 102.53 102.53 0 0 0 30.945-21.478c23.971-23.972 37.736-59.134 37.736-96.455 0-37.312-13.756-72.457-37.736-96.437-8.894-9.017-19.387-16.3-30.945-21.479-12.326-5.506-25.733-8.168-39.227-7.79s-26.731 3.788-38.73 9.976C73.8 18.652 62.536 27.765 52.863 39.381c-19.726 23.701-30.592 55.178-30.592 88.615 0 37.321 13.747 72.474 37.728 96.455 8.901 9.007 19.393 16.289 30.944 21.478a90.14 90.14 0 0 0 36.679 7.813z"
		fill="#fff" />
	<path
		d="M192.943 33.853a99.38 99.38 0 0 0-29.951-20.81 86.85 86.85 0 0 0-37.828-7.502c-13.012.366-25.776 3.652-37.347 9.615-12.166 6.178-23.077 15.03-32.453 26.293-19.248 23.123-29.842 53.868-29.842 86.546 0 36.472 13.404 70.777 36.77 94.143a99.27 99.27 0 0 0 29.969 20.828 86.84 86.84 0 0 0 35.361 7.542c12.189-.004 24.24-2.574 35.37-7.542a99.27 99.27 0 0 0 29.951-20.828c23.376-23.366 36.779-57.671 36.779-94.143.01-36.463-13.403-70.776-36.779-94.143z"
		fill="#000" />
	<path
		d="M165.937 78.698c-11.344 0-38.983 8.463-40.157 8.807-.124.035-.241.093-.343.172l-.018-.036c-1.222-5.65-3.126-11.131-5.673-16.321 5.537-2.33 33.42-13.494 55.512-12.058 11.065 9.61 13.422 21.307 13.422 23.249a8.81 8.81 0 0 1-.09 1.246c-3.965-2.493-11.868-5.058-22.653-5.058zM81.892 56.117c2.719-4.128 4.435-6.72 8.879-10.929 11.67-11.055 26.934-18.498 45.54-22.454.714-.135.732.533.732.533l-.551 14.217a123.48 123.48 0 0 0-7.632.226c1.915-.56 3.712-1.77 5.69-2.24-4.091.966-8.228 1.463-12.013 2.8a100.88 100.88 0 0 0-7.587 1.21c5.411-2.457 11.074-5.175 17.27-6.774-8.481 2.177-16.493 4.516-23.502 8.283a69.77 69.77 0 0 0-7.966 2.764c8.237-5.745 17.63-10.866 28.442-13.928-13.341 3.775-27.16 10.243-36.653 18.037 7.587-7.542 15.183-13.043 25.435-17.288-14.325 5.853-27.341 14.939-36.084 25.543zm11.092-5.5c0-.596.135-.994.388-1.183.397-.289 1.102-.208 1.4-.145.84.406 8.039 3.92 13.196 8.815 11.833 11.236 15.482 29.77 15.518 29.951l.018.09c2.475 8.463 3.188 13.358 2.186 14.993-.371.605-1.03.759-2.168.957l-.1.028c-2.122.379-4.76 1.282-7.55 2.23l-4.417 1.464c-2.782.867-3.423-.389-4.137-2.556-.099-.298-.19-.578-.289-.822-10.685-26.42-14.045-49.623-14.045-53.823zm94.513 35.461l-.181.153c-1.336.93-3.423.37-3.956.19a8.73 8.73 0 0 1 .687-2.114c1.4.578 2.547 1.174 3.45 1.77zM122.095 52.09c-4.616 1.364-8.147 3.577-8.463 3.685.081-.027 4.019-.894 8.652-2.258 4.625-1.373 13.16-3.568 16.466-4.019-3.378.452-12.049 1.219-16.655 2.592zm1.779 2.014c-4.615 1.373-8.138 3.586-8.463 3.694.072-.018 4.028-.894 8.644-2.258 4.624-1.382 13.16-3.568 16.484-4.028-3.388.47-12.058 1.228-16.665 2.592zm.939 2.258c-4.606 1.373-8.138 3.586-8.454 3.694a144.62 144.62 0 0 0 8.653-2.258c4.625-1.382 13.16-3.577 16.475-4.028-3.387.461-12.058 1.219-16.674 2.592zm1.337 2.267c-4.615 1.373-8.147 3.577-8.463 3.685.081-.018 4.028-.885 8.653-2.258 4.633-1.382 13.16-3.568 16.493-4.028-3.387.47-12.076 1.237-16.683 2.601zm2.827 1.499c-4.606 1.373-8.138 3.586-8.454 3.694.072-.018 4.028-.894 8.653-2.258a155.95 155.95 0 0 1 16.475-3.748c-3.387.461-12.058.948-16.674 2.312zm1.969 2.412c-4.136 1.246-7.307 3.261-7.587 3.36.063-.018 3.613-.813 7.768-2.068 4.146-1.265 11.805-2.917 14.768-3.342-3.026.434-10.803.795-14.949 2.05zm-12.284-11.868c-3.585.993-6.322 2.619-6.566 2.692.054-.018 3.125-.641 6.711-1.653 3.595-1.012 10.224-3.017 12.799-3.351-2.629.343-9.367 1.31-12.944 2.312zm-31.07 30.664c-1.716 1.129-2.899 2.475-3.017 2.547.027-.018 1.843.036 3.568-1.093 1.707-1.138 4.543-4.2 5.835-4.796a61.7 61.7 0 0 0-6.386 3.342zm.099-2.999c-1.707 1.129-2.89 2.466-3.008 2.547.027-.018 1.843.036 3.559-1.093 1.716-1.138 4.552-4.2 5.844-4.796-2.195.988-4.33 2.104-6.395 3.342zm-.37-3.08c-1.499.93-2.538 2.032-2.637 2.104.018-.018 1.617.018 3.116-.912 1.508-.93 3.992-3.45 5.121-3.938a58.2 58.2 0 0 0-5.6 2.746zm-.623-2.637c-1.346.813-2.276 1.77-2.357 1.825.018-.009 1.445.027 2.791-.786 1.355-.804 3.586-3.008 4.597-3.432a50.03 50.03 0 0 0-5.031 2.394zm.542-3.315c-1.138.641-1.915 1.409-1.996 1.454.018-.009 1.219.018 2.348-.623 1.138-.65 3.008-2.403 3.857-2.737-.867.343-3.08 1.264-4.209 1.906zm-.117-3.008c-1.129.641-1.915 1.409-1.987 1.454.018-.009 1.21.018 2.348-.623 1.129-.632 3.008-2.403 3.848-2.728-.858.334-3.071 1.255-4.209 1.897zm2.032-4.471c-.786.406-1.337.894-1.391.921.018-.009.849.009 1.635-.388.795-.416 2.096-1.536 2.692-1.752-.596.226-2.15.804-2.935 1.219zM107.968 44.8c-.84.298-1.445.714-1.499.732.009 0 .831.136 1.671-.163.84-.307 2.294-1.228 2.908-1.364-.632.136-2.24.506-3.08.795zM88.91 83.648c-1.707 1.129-2.899 2.466-3.008 2.547.027-.018 1.843.036 3.559-1.102 1.716-1.129 4.552-4.191 5.835-4.787a62.59 62.59 0 0 0-6.386 3.342zm1.273 1.978c-1.716 1.129-2.899 2.466-3.017 2.547.027-.018 1.843.036 3.559-1.102 1.716-1.129 4.552-4.2 5.844-4.787a62.5 62.5 0 0 0-6.386 3.342zm.623 2.646c-1.346.885-2.276 1.951-2.366 2.014.018-.018 1.445.027 2.791-.876s3.568-3.324 4.579-3.794a46.19 46.19 0 0 0-5.004 2.656zm.063 3.369c-1.337.885-2.267 1.951-2.357 2.014.018-.018 1.445.027 2.782-.867 1.355-.903 3.577-3.333 4.588-3.802-1.724.782-3.398 1.668-5.013 2.655zm-.506 3.414c-1.246 1.039-2.059 2.204-2.123 2.267.018-.009 1.436-.135 2.673-1.165 1.237-1.048 3.188-3.703 4.137-4.281-1.628.96-3.193 2.022-4.688 3.179zm26.03-46.118c-2.962.822-5.229 2.141-5.428 2.204.045-.018 2.583-.533 5.546-1.355 2.971-.822 8.454-2.475 10.577-2.746-2.168.28-7.732 1.075-10.695 1.897zm-1.083-1.662c-1.979.632-3.487 1.662-3.613 1.716.018-.018 1.716-.416 3.685-1.057 1.978-.641 5.618-1.924 7.045-2.141-1.445.226-5.157.84-7.117 1.481zm17.531 16.999c-4.137 1.247-7.316 3.279-7.596 3.36.036-.009.939-.208 2.33-.56a186.63 186.63 0 0 1 16.647-5.139c-3.631.578-8.427 1.454-11.381 2.339zm13.801-22.472l-2.366.75c.036 0 1.662-.063 4.037-.235a36.57 36.57 0 0 0-1.671-.515zm25.29 14.695c-3.125.208-5.437.732-5.681.732.072 0 3.207.343 7.271.551l-1.59-1.283zm-6.403-4.95c-3.297.452-5.718 1.219-5.944 1.247.073-.009 3.351.09 7.569-.054l-1.625-1.192zm-6.91-4.534c-2.836.632-4.832 1.409-5.067 1.445.072-.009 2.944-.108 6.72-.443-.542-.343-1.111-.677-1.653-1.002zm2.999 1.843c-2.927.65-5.013 1.454-5.239 1.481.054-.009 2.981-.099 6.792-.452l-1.553-1.03zm-6.901-3.929c-2.05.533-3.423 1.066-3.613 1.093.054-.009 2.168-.09 5.149-.316a30.85 30.85 0 0 0-1.536-.777zm14.415 9.33c-3.197.199-5.536.75-5.789.75.09 0 3.297.352 7.424.551l-1.635-1.301zm-18.208-11.001c-2.015.533-3.333 1.048-3.55 1.075.072-.009 2.258-.081 5.329-.334l-1.779-.741zM136.14 152.934s1.237-1.039 1.879-1.129c.668-.109-.29 1.129-1.879 1.129zm47.636-43.689l-2.367-4.616-.722-1.752h-.019c-.984-2.023-2.574-4.606-2.447-6.259.144-1.644.533-2.258-.371-2.637-.885-.37-1.499-1.03-1.743-.795-.208.235-1.391.614-1.644.235-.225-.379-.885-.704-1.255-.569 0 0 .741.903-.298 1.418s-1.355.334-1.409.659-1.463.235-1.256.659c.181.425.633 1.174.28 1.219a19.16 19.16 0 0 0-3.594 1.608c-1.202.704.812.036 1.887-.379 1.075-.424.334 1.219-.406 1.508-.777.28-3.18 1.545-4.571 2.105 0 0 .127-1.653-.298-1.554-.424.09 0-.849.298-1.129.262-.28.262-.894-.849-.705-1.129.19-.903.56-2.538.56a10.84 10.84 0 0 1-6.178-1.969s-.262.045-1.499.045-1.779 1.689-.388 1.689c0 0 .758.569-.181 1.03-.948.478-.948-.75-.948-.75s-1.978 0-4.309 1.039c0 0 1.129-.939 1.87-1.978 0 0-1.87.099-3.477.939 0 0 4.778-4.046 13.638-6.106 0 0-1.59-.75-5.835.28 0 0 3.198-2.448 8.382-2.068 0 0-2.737-2.068-2.926-3.288h-3.667s.388-1.039-2.719-.379-4.796.849-4.796.849 5.835-.379 2.628.75c-3.197 1.129-13.069 4.426-19.943 8.093 0 0 3.207-1.039 5.085-1.039l-5.455 3.667 3.008-.181s-6.874 3.667-1.789 3.008c0 0-6.675 4.046-1.129 2.917 0 0-6.864 4.236.75 2.077 0 0-10.071 5.546 1.409 2.258 0 0-11.57 5.447.28 2.719 0 0-10.532 5.934-.849 3.207 0 0-3.857 1.779-7.813 5.825 0 0 10.08-5.076 14.777-5.265 0 0-9.132 3.107-14.858 9.032 0 0 6.954-4.607 15.228-6.305 0 0-15.328 7.154-20.033 14.678h.289s11.091-11.661 23.411-12.7c0 0-16.637 4.995-23.14 15.617l.65.379s8.102-10.73 21.551-12.889c0 0-14.118 6.585-19.754 13.829l.461.858s6.873-8.843 19.013-11.39c0 0-14.867 7.804-18.914 14.027l1.03.56s8.282-9.881 16.384-11.1c0 0-10.739 6.024-14.496 11.48l.65.469s4.516-5.275 11.588-7.713c0 0-5.943 3.486-10.36 9.131l.849.47s4.517-3.577 9.313-6.115c0 0-5.745 4.561-7.154 6.928l1.129.84s2.538-1.834 5.564-2.863c3.008-1.039-3.766 3.712-4.715 4.931l.389.289s2.628-1.933 5.356-3.342c2.718-1.409 1.354.326-3.342 4.562l.939.469s8.617-4.606 2.583.66c0 0 1.518 1.553 4.625-1.455s0 2.358-2.909 4.047c-2.917 1.698 2.349.479 5.907-2.737 3.577-3.197 1.518 1.039.759 1.608s-2.448 1.969-2.448 1.969 3.776-.867 6.964-3.776c3.198-2.926.94.741 0 1.491-.939.758-1.607 1.698-3.649 3.026 0 0 3.279-.28 6.196-3.397 2.909-3.107 1.5 1.5-1.887 3.758 0 0 .849 1.129 6.774-3.387s-3.107 4.155-3.107 4.155.442 1.264 4.624-2.448c3.387-3.017-.758 2.728-.758 2.728s.948.939 4.037-1.229c2.962-2.068 1.129.849.56 1.319-.56.488 2.818.488 4.146-1.129 1.318-1.599 1.409.659.758 1.319s1.129.659 2.999-.94c1.888-1.598.479 1.319.208 1.608-.298.271.831.65 2.258-.479 1.409-1.129 1.129.858.461 1.238-.669.37.668.966 1.409.28 1.661-1.599.162 1.625.966 2.104 3.143-1.553 3.514-2.999 3.902-5.455.352-2.331-1.057-6.16-1.996-8.301-1.22-.397-2.791.172-2.791.172-3.568 1.318-.551-.94-1.31-.759-.759.19-2.908.479-1.797-.37 1.147-.849 2.068-1.978 2.068-1.978l.163.045c.171-.082.363-.111.551-.081 2.465.334 4.073-.028 4.814-1.048.74-1.03.596-2.71.208-4.191-1.726-1.509-7.759-2.728-9.123-2.728-1.391 0-4.408 1.228-5.907 1.228s-1.499-.858-.759-1.129c.759-.28 3.198-.939 4.327-1.607 1.129-.651 4.814-1.4 6.015-1.4 1.238 0 2.647.749 3.496.749.813 0 1.905 0 2.402-.948.143-.693.125-1.41-.054-2.095-.068-.18-.11-.369-.126-.56-.407.234-.922.749-2.051 1.065-1.698.47-1.589-1.038-1.589-1.038-1.409.569-.849-1.5-.849-1.5-1.78.651-.651-1.698-.651-1.698-2.628.651-.65-1.878-.65-1.878-3.965 1.788-1.978-1.039-1.978-1.039-3.315.75-2.755-.66-2.755-.66-1.87.57-1.391-1.029-1.391-1.029-.578.189-2.366.189-1.707-1.319.668-1.508 2.168-1.319 2.168-1.319.09 1.319 1.147.849 2.348.75 1.238-.09 2.186-.75 1.888-.37-1.183 1.589 1.707.659 2.448 0 .758-.66 2.149-.569 1.887-.19-1.445 1.924.551 1.129 2.52.19 1.996-.949 1.039.849 1.039.849s-1.219 1.029.759.18c2.222-.957 2.222.317 2.185.723 1.31-.063 3.162-.415 3.532-1.825.524-1.833-2.421-7.261-4.344-10.847z"
		fill="#fff" />
	<path
		d="M169.893 145.265s2.258.379 3.866-1.129.09-1.129-.65-.849c-.768.289-2.267.849-3.216 1.978zm-1.129-1.879s2.909.181 2.647-1.418c-.091-.56-1.698.569-2.647 1.418zm-2.438-.939s2.077 0 2.628-1.129c1.111-2.231-2.15.56-2.628 1.129zm-1.608-1.129s2.348-.289 1.978-1.319c-.37-1.039-1.78.849-1.978 1.319zm14.361-1.608s.108 1.599-.28 2.358c0 0 1.608-.479.28-2.358zm-1.283 2.168s1.057-1.229.389-2.168-.389 2.168-.389 2.168zm-.939-.379s-.37-.85-.37-1.5c0-.659-.949.56.37 1.5z"
		fill="#000" />
	<path d="M166.976 120.707s-.09-1.129-.849-1.129c0 0 .479.569-.28 1.418-.759.84 1.129-.289 1.129-.289z"
		fill="#fff" />
	<path
		d="M141.098 143.477s1.238-1.021 1.906-1.129c.642-.091-.28 1.129-1.906 1.129zm-3.766-1.084s1.228-1.03 1.879-1.129c.659-.09-.262 1.129-1.879 1.129zm4.137 4.895s1.237-1.038 1.888-1.129c.659-.108-.262 1.129-1.888 1.129zm3.405.47s1.237-1.039 1.87-1.129c.668-.099-.262 1.129-1.87 1.129zm3.495.985s.741-.47 1.129-.84c.371-.38.371 1.409-1.129.84zm-4.055-3.947s.741-.479 1.129-.85c.37-.37.37 1.419-1.129.85zm-4.905-7.055s.777-.478 1.129-.849c.389-.379.389 1.409-1.129.849zm-.072-3.387s.741-.478 1.129-.849c.371-.379.371 1.418-1.129.849zm22.752 18.534s.741-.469 1.129-.849c.371-.379.371 1.409-1.129.849zm3.216 1.31s.74-.461 1.129-.849c.37-.361.37 1.418-1.129.849zm-21.84-18.624l-.37.469 1.038.091.091-.56h-.759zm1.517 5.247l-.388.47 1.039.099.108-.569h-.759zm13.901 7.271l-.352.461 1.02.099.109-.56h-.777zm-2.15 2.159l-.388.479 1.057.081.072-.56h-.741z"
		fill="#000" />
	<path
		d="M198.119 42.406l-.813-.939h-45.604l2.24.939h44.177zm-7.343-7.921l-.967-.948h-44.258l-.243.948h45.468zm9.493 10.568l-.777-.948h-42.09l1.707.948h41.16zm-6.883-7.921l-.921-.948h-47.663l-.28.948h48.864zm-11.679-10.568l-1.255-.948h-32.633l-.262.948h34.15zm-3.576-2.637l-1.373-.948h-28.172l-.262.948h29.807zm6.846 5.284l-1.147-.948h-36.761l-.262.948h38.17zm3.017 2.628l-1.066-.939h-40.627l-.262.939h41.955zm25.597 34.35l-.461-.948h-29.688l.686.948h29.463zm-4.29-7.921l-.56-.948h-32.706l1.093.948h32.173zm6.774 13.205l-.425-.948h-28.894l.479.948h28.84zm-1.201-2.637l-.461-.948h-29.192l.578.948h29.075zm-10.685-18.498l-.669-.939h-37.637l1.319.939h36.987zm-1.906-2.637l-.705-.948h-39.624l1.463.948h38.866zm5.41 7.921l-.596-.948h-34.259l1.165.948h33.69zm-1.689-2.637l-.65-.948h-35.867l1.219.948h35.298zm6.241 10.568l-.515-.948h-30.375l.777.948h30.113zm11.643 97.737l.226-.948H180.75c-.323.354-.683.672-1.075.948h44.213zm1.147-5.284l.181-.948h-42.425l-.054.424-.09.533h42.388v-.009zm-1.798 7.922l.226-.94h-46.922l-2.366.913-.127.036 49.189-.009zm4.462-39.616l-.036-.957h-40.31c-1.139.401-2.343.585-3.55.542l-.145.415h44.041zm-1.391-16.8h-41.223l.425.795.09.154h40.835l-.127-.949zm-52.133-86.23l-1.536-.948h-23.303l-.28.948h25.119zm20.358 152.274h-25.064c.014.135.02.271.018.406a2.04 2.04 0 0 0 .072.542h24.242a5.26 5.26 0 0 1 .732-.948zm4.715-1.996c.849 0 1.572.117 2.186.307h19.491l.298-.957h-51.808c-.019.325 0 .641 0 .957h27.819a6.68 6.68 0 0 1 2.014-.307zm-10.568 7.28h-16.547a2.88 2.88 0 0 0 .371.37c.162.19.37.37.596.569h14.271l1.309-.939zM164.655 15.996l-2.033-.948h-11.714l-.181.659c-.018.027-.036.054-.036.081l-.073.208h14.037zm39.461 157.558a4.76 4.76 0 0 1 .633.939h15.291l.316-.939h-16.24zM169.749 18.643l-1.725-.948h-17.902l-.262.948h19.889zm40.518 41.313h-31.351l.922.948h30.98l-.551-.948zm14.307 37.935l-.189-.939h-39.309c-.036.036-.072.081-.126.117-.129.122-.289.205-.463.242a.97.97 0 0 1-.522-.034c-.442-.153-1.219-.271-1.553-.036-.163.126-.208.406-.226.659l42.388-.009zm.362 1.689h-42.813v.045l-.018.904h43.029l-.198-.949zm-29.978-60.76h-50.915l-.09.28 2.7.678h49.181l-.876-.958zm32.498 98.695l.054-.939h-45.387c.126.28.226.605.334.939h44.999zm-.741 7.922l.108-.94h-45.134c-.385.4-.845.719-1.355.94h46.381zm.28-2.629l.108-.948h-44.176a7.3 7.3 0 0 1-.226.948h44.294zm-.632 5.284l.144-.948h-45.459l.37.948h44.945zm-.371 2.638l.127-.949h-44.123l.262.949h43.734zm1.247-10.568l.072-.949h-44.457l.109.949h44.276zm.334-5.284l.054-.948h-44.736c-.11.332-.258.651-.443.948h45.125zm.163-5.284l.018-.957h-44.936a8.03 8.03 0 0 0 .055.948l44.863.009zm-44.529 2.647h44.474l.036-.949h-44.546a5.65 5.65 0 0 1 .036.949zm39.326 34.331l.244-.948h-51.511c-.288.286-.543.604-.759.948h52.026zm-38.848 15.852l1.319-.949h-9.475c.813.425 1.725.768 2.719.949h5.437zm7.307-5.284l1.256-.949h-22.021l.56.949h20.205zm34.54-23.773l.162-.948h-43.065l.126.948h42.777zM158.585 13.359l-6.476-2.258-.669 2.258h7.145zm65.908 145.283l.19-.94h-42.425l-.37.94h42.605zm-2.737 10.577l.28-.958h-52.287c-.095.312-.158.633-.19.958h52.197zm5.998-42.271l-.018-.94h-44.583l-.19.94h44.791zm-2.132-23.773l-.181-.948h-42.885l.389.948h42.677zm-2.276-10.568l-.244-.948H183.83a8.36 8.36 0 0 0 .406.948h39.11zm-1.445-5.284l-.298-.948H189.8a4.66 4.66 0 0 1-.722.948h32.823zm.758 2.637l-.262-.939h-39.181a5.82 5.82 0 0 0 .126.939h39.317zm-1.571-5.284l-.316-.939h-30.186c-.034.316-.089.63-.163.939h30.665zm-2.827-7.921l-.371-.948h-28.803l.334.948h28.84zm1.942 5.284l-.316-.948h-29.373l.108.948h29.581zm-.931-2.646l-.352-.939h-28.984l.244.939h29.092zm-2.068-5.284l-.388-.939h-28.795l.406.939h28.777zm6.792 21.135l-.226-.939h-39.01l.262.939h38.974zm3.478 23.781l-.055-.957h-37.447l.18.957h37.322zm-.425-5.283c-.018-.316-.072-.633-.108-.94h-39.074l.461.94h38.721zm.226 2.637l-.072-.939H189.06l.388.939h37.827zm.334 5.284l-.054-.948h-37.556c-.097.334-.24.653-.425.948h38.035zm-.84-10.568l-.108-.948h-40.167l.497.948h39.778zm-.722-5.284l-.145-.939h-42.199l.479.939h41.865zM78.659 153.367l.018-.948h-9.809l.036.948h9.755zm-.108-7.93l-.063-.94h-9.114l-.117.94h9.294zm.117 2.655l-.027-.948h-9.565l-.09.948h9.683zm-.488 15.834l.045-.94h-9.818l-.099.94h9.872zm.135-2.638l.009-.199.036-.749h-9.7l-.081.948h9.737zm.262-5.284l.036-.948h-9.692l-.018.948h9.674zm-.127 2.638l.045-.94H68.83l-.054.94h9.673zm.244-7.912v-.949h-9.827l-.036.949h9.863zm-.352-7.922l-.117-.948h-8.49l-.135.948h8.743zm-3.595-13.214l-.524-.948h-2.24l-.181.948h2.945zm-1.599-2.646l-.641-.94-.199.94h.84zm2.8 5.293l-.397-.949h-4.064l-.163.949h4.624zm.903 2.637l-.298-.948h-5.537l-.163.948h5.997zm1.156 5.284l-.162-.949h-7.714l-.145.949h8.021zm-.488-2.647l-.217-.939h-6.738l-.163.939h7.117zm19.844 47.546l.298-.939h-35.63l-.659.939h35.993zm-7.289 5.284c.269-.342.569-.66.894-.949H58.219l-.705.949h32.561zm-.695 2.646c-.072-.311-.087-.632-.045-.948H56.25l-.695.948H89.38zm4.155-5.284l1.192-.56a1 1 0 0 1 .634-.043c.211.056.397.179.531.351.054.072.099.171.135.243h.208l.47-.948H60.161l-.686.948 34.06.009zm-16.177 13.206l1.806-.949H50.587l-.596.949h27.368zm-28.262 1.698a.49.49 0 0 1-.045.117l1.255 1.861H65.75c1.418-.849 2.981-1.482 4.489-1.978H49.096zm33.085-4.336l1.599-.948H52.393l-.659.948h30.448zm4.327-2.646l1.454-.94H54.299l-.696.94h32.904zm-8.292-23.764l-.108-.957H67.242l-.19.957h11.164zm.632 2.628l-.289-.939H66.682l-.235.939h12.401zm8.481 7.931c-.784-.26-1.548-.577-2.285-.949h-21.28l-.596.949H87.33zm-9.303-13.205v-.055l.009-.912H67.712l-.163.957h10.477v.01zm.045-2.647l.036-.948H68.1l-.136.948h10.107zm4.381 13.205a10.92 10.92 0 0 1-1.003-.939H65.083l-.406.939h17.775zm-2.33-2.637l-.551-.949H65.987l-.298.949h14.434zm3.36.144c3.893 3.893 10.893 3.875 13.891 3.875h.939l.081-.56h-.181c-3.793 0-10.685-.524-14.226-4.073-.749-.738-1.339-1.621-1.733-2.595a7.69 7.69 0 0 1-.561-3.069c0-3.847 1.978-7.641 4.471-12.437 2.863-5.501 6.431-12.365 8.256-21.903 1.237-6.539 1.969-23.412 2.177-28.714l-2.294 2.159c.867 1.174-.894 1.761-.894 1.761 1.129.145-.984 1.979-.984 1.979 1.833 1.273-.705 1.689-.705 1.689 1.409 1.273-1.409 1.978-1.409 1.978 4.932 3.251-.569 2.122-.569 2.122 3.956 2.818-.569 1.834-.569 1.834 2.972 1.833-.84 2.393-.84 2.393 5.645 2.818-.28 2.123-.28 2.123 5.645 3.802-.849 2.258-.849 2.258 8.743 4.516-.704 2.402-.704 2.402 9.032 4.237-1.129 2.403-1.129 2.403 10.73 6.07-1.418 1.978-1.418 1.978 11.643 7.93.849 3.107.849 3.107 8.048 6.919.849 3.107.849 3.107 5.925 7.054-2.258 1.274-2.258 1.274 8.048 8.047.56 3.667.56 3.667 6.359 7.316-.984 2.086-.984 2.086 5.925 5.925.704 3.667.704 3.667 2.114 4.236-1.129 2.818-1.129 2.818 2.818 3.532-.56 3.252-.56 3.252 2.972 3.803-.849 2.818-.849 2.818 1.427 2.972.199 3.279-.416 3.279l-.153 5.193c.009 3.46.984 6.196 2.917 8.129zm119.505.009a.86.86 0 0 1-.262-.397c-.018-.09-.74-2.123-3.847-2.123-1.409 0-1.409 1.698-.28 1.698s4.94 1.554.424 1.554c-1.553 0-.704.984.145.984l.939.037c1.698.28 2.014-.777 2.881-1.753zm-1.96 13.549c4.661-.298 8.906-2.439 12.645-6.359-1.725.551-3.685.623-3.685.623 1.391-.56.687-2.113.687-2.113-1.834.849-3.812.56-3.812.56 1.129-.56 1.409-1.409 1.409-1.409-1.273.704-3.242.56-3.242.56 1.129-.705.704-1.978.704-1.978-.984.28-2.683.144-2.683.144 1.428-.704.56-1.833.56-1.833-2.113 1.833-6.494 1.553-6.494 1.553.737.831 1.739 1.38 2.836 1.554-.722.28-1.707.849-1.707.849.578.28 2.114.704 2.114.704-2.385.705-4.092.56-4.092.56 2.683 1.274 6.494.849 6.494.849-2.52 1.409-6.196.985-6.196.985 2.665 1.553 4.796.713 4.796.713-2.42 1.12-3.125 1.12-3.125 1.12 1.707.705 3.812 1.129 3.812 1.129-6.07 1.409-11.552-.56-11.552-.56l.424.416c2.909 1.246 6.404 2.176 10.107 1.933zm7.678-11.516s2.42-.994 3.811-.859c-.009.01-1.842-1.969-3.811.859zm3.098.56s.849-.56 1.707 0c.84.569-1.707 0-1.707 0zM179.35 191.88s1.698-.424 2.683-.28c0 0-1.256-1.698-2.683.28zm2.818 2.963c-.885-.127-2.574.506-3.279.524-.478-.325-.334-.569-.126-.714.307-.19.66-.293 1.021-.298.993-.045 2.176.65 2.384.488zm.126 3.251c-.758-.108-2.465.723-3.883.759-1.202-.262-1.22-.551-1.003-.659.434-.272.934-.419 1.445-.425 1.183-.027 2.999.633 3.441.325zm.118 3.243c-.669-.09-2.367.948-4.48.985-1.924-.199-2.078-.515-1.924-.597s.849-.551 1.87-.551c1.418-.018 3.865.633 4.534.163zm.126 3.243c-.551-.073-2.24 1.165-5.067 1.228-2.682-.145-2.962-.47-2.818-.56.127-.072.967-.659 2.294-.668 1.608-.009 4.706.632 5.591 0zm.127 3.251c-.425-.063-2.132 1.382-5.645 1.454-3.424-.081-3.866-.424-3.74-.496.091-.055 1.129-.786 2.701-.786 1.815-.009 5.591.614 6.684-.172zm.117 3.243c-.334-.045-2.014 1.598-6.259 1.698-4.146-.036-4.706-.389-4.625-.443.073-.045 1.274-.912 3.126-.912 2.032-.009 6.458.614 7.758-.343zm.127 3.251c-.208-.036-1.906 1.807-6.847 1.924-4.886.027-5.591-.352-5.518-.397.036-.018 1.391-1.021 3.531-1.021 2.258-.009 7.298.596 8.834-.506zm.144 3.243c-.126-.018-1.815 2.05-7.46 2.168-5.609.081-6.458-.325-6.44-.344.036-.009 1.553-1.147 3.965-1.147 2.475 0 8.165.587 9.935-.677zm-15.282 5.365s1.707-1.273 4.371-1.273c2.683 0 9.032.56 11.011-.849 0 0-1.68 2.258-8.03 2.402-6.359.145-7.352-.28-7.352-.28zm.289 3.703s1.698-1.273 4.389-1.273c2.683 0 8.87-.461 10.993-.84 0 0-1.699 2.249-8.048 2.393-6.332.145-7.334-.28-7.334-.28zm-2.547 3.938s1.571-1.165 4.055-1.165 8.256-.415 10.197-.768c0 0-1.571 2.06-7.442 2.186s-6.81-.253-6.81-.253zm-6.115-34.701a80.87 80.87 0 0 1-24.785 3.92c-23.267 0-37.185-2.051-42.568-6.278-.831-.65-.777-1.075-.75-1.228.108-.786 1.246-1.716 2.484-2.439a3.37 3.37 0 0 0 .343 1.075c2.448 4.95 16.177 7.451 40.771 7.451 10.053 0 18.137-1.056 24.505-2.501zm-53.85-89.555c-.75.551-1.59 2.683.515 1.147-.178-.387-.337-.782-.479-1.183l-.036.036zm.28 4.227c.56-1.038-.1-1.409-.66-.659a8.61 8.61 0 0 0-1.309 2.159l-.036.072c.704-.325 1.508-.65 2.005-1.572zm10.26 14.208c-1.038-.09.091-.659.47-.939.37-.28-.099-.66-.849-.66s-.659-.749-.19-1.318c.47-.56.19-1.319-.758-.75-.94.56-1.969-.28-.84-1.409 1.129-1.138-.19-.759-.1-1.319.1-.569-.28-1.508-.84-1.228-.569.28-1.219 1.409-1.129 2.168.09.749-1.129 1.698-3.766 2.827s-1.22-.1-.38-.849c.849-.759 1.129-2.078.38-3.767-.75-1.698-1.129-2.818-2.069-2.637-.939.189-1.418.759-2.158 1.319-.759.569-1.319.09-.38-.94s1.789-1.319 1.879-1.978-.37-.659-.939-.099c-.56.56-1.409 1.797-1.409 1.047 0-.496-.082-1.02.072-1.436-.289.082-.551.009-.641-.262-.19-.56.099-.939.28-1.409.189-.478-.84-.659-.66-1.607.19-.931 1.409-2.629 1.978-3.189.38-.388.759-1.029 1.093-1.318l-.081-.181c-.84.659-2.141 1.761-2.33.822-.181-.939.749-1.31 1.418-1.879.126-.111.244-.232.352-.361l-.84-2.159-3.107 2.881c.361.353.469.994-.741 1.988 0 0 1.111 1.454-.334 2.736l.009.109.036.433c.433.633 1.156 1.879.244 2.258l.018.091c.325.352 1.834 2.086.515 2.845 1.562 6.991 5.031 11.841 10.522 14.74 3.053 1.644 4.498 1.59 5.167 1.256a1.75 1.75 0 0 0 .596-.533l.668-1.87.018-.117c.021-.116.064-.226.127-.325-.018-.289-.334-2.891-1.301-2.981z"
		fill="#fff" />
	<path
		d="M143.004 97.566s5.998-.849 8.825-3.766c0 0-7.127 2.258-8.825 3.766zm-1.634-1.553s10.567-2.782 13.385-5.699c0 0-11.696 4.191-13.385 5.699zm-1.084-1.815s8.625-1.716 11.471-4.633c0 0-9.755 3.125-11.471 4.633z"
		fill="#000" />
	<path d="M170.453 93.899s1.337-.099 1.698-.759c.389-.659-1.201.28-1.698.759z" fill="#fff" />
	<path
		d="M166.325 101.703s1.699-1.599 2.909-1.509c1.219.1 1.219-.65 1.219-.65s.813 1.075-1.589 1.969c-.759.289-2.539.19-2.539.19zm-17.495-1.03l1.698-.849c-.009 0 .271.93-1.698.849z"
		fill="#000" />
	<path
		d="M130.504 94.314s8.626-1.707 11.444-4.624c0 0-9.746 3.116-11.444 4.624zm.849-2.854s3.956-.732 5.238-1.996c0 0-4.452 1.355-5.238 1.996zm-5.492 53.805s-.885.424-.605.795c.28.379.705.569 1.129.289.425-.289.47-.614.28-.849-.181-.235-.551-.334-.804-.235zm-3.387-.705c-.226.28-.036.371.054.56a.44.44 0 0 0 .569.235c.28-.099.75-.433.606-.65-.136-.244-.425-.533-.66-.425-.226.091-.569.28-.569.28zm6.169 2.024c-.226.063-.47.478-.379.758.099.271.334 1.075.569.976.372-.206.705-.475.984-.795.199-.226 0-.894-.144-.976-.136-.108-.84 0-1.03.037zm1.238 3.098s-.705.334-.624.668c.1.316.244.56.569.56.335 0 .615-.235.75-.425.145-.189-.424-1.129-.695-.803zm2.583 1.382c-.172.162.271.695.596 1.02.343.334.479.145.704-.144.244-.28.145-.371-.036-.605-.189-.235-.325-.696-.668-.56-.325.135-.461.135-.596.289zm-2.087 1.58c-.135.19-.325.28-.135.56s.56.533.849.47c.271-.045.271-.226.271-.47 0-.226-.641-1.02-.94-.704l-.045.144zm3.676 1.463c-.325.271-.325.651.19.56.515-.099.569-.289.614-.424.036-.136-.46-.416-.804-.136zm-5.455.091c-.208.18-.614.28-.379.614.243.334.523.75.704.515.19-.235.425-.235.569-.461.145-.244-.569-.948-.894-.668zm-4.751-6.522c-.298.145-.424.515-.099.741.334.235.659.099.903-.144.226-.235-.145-.94-.804-.597zm-3.667-4.064c-.071.078-.119.174-.141.277s-.016.21.017.31.092.189.171.259a.59.59 0 0 0 .278.138c.425.109.614-.28.759-.424.135-.145.135-1.219-.334-.939-.47.289-.75.379-.75.379zm25.931 12.193c-.298.326-.578.651-.243.651.316 0 .56-.045.74-.425.19-.37-.289-.515-.497-.226zm-8.86 3.713c-.461.271-.425.704-.1.894.353.19.47.054.723-.271.226-.352.054-1.003-.623-.623zm15.472-1.689c-.37.162-.65.379-.334.524.334.135.704.225.921-.055.172-.289-.162-.659-.587-.469zm3.161 1.454c-.316.19-.849.424-.388.515.479.108.614.388.849.108.244-.298-.127-.813-.461-.623zm-9.935 13.503c-.407.244-.795.524-.425.75.371.235.28.334.795-.045.533-.38.109-.976-.37-.705zm21.28-12.464c-.371.189-.578.56-.298.56.298 0 .533-.091.632-.28.072-.19-.163-.38-.334-.28zm-31.911 34.349s.849-.813 2.032-1.472c1.174-.651 1.355-.325.226.479-1.129.794-3.243 1.734-2.258.993zm3.577-6.404c.867-.966 1.571-1.454 2.032-1.038.461.424.28.903-.28 1.228s-2.439.605-1.752-.19zm3.071-2.402c.596-.795 1.725-1.608 1.96-1.229.244.38 1.056.714.054 1.229-.976.514-2.827 1.029-2.014 0zm3.703-1.978c.65-.569 1.039-1.464 1.409-1.084s1.183.515.479.993c-.705.461-2.575.705-1.888.091zm.054 3.007c.479-.487.759-.939 1.129-.524.388.434 0 .615-.424.94s-1.129.009-.705-.416zm-3.161-3.947c.551-.46 1.002-.804 1.237-.424s.551.09-.189.704c-.759.614-1.644.235-1.048-.28zm-.334-2.213c.632-.415.776-.704.948-.469s.181.569-.244.795c-.424.234-.84-.226-.704-.326zm7.108 3.713c.424-.425.533-.56.704-.416.19.136 0 .524-.18.65-.19.145-.804.055-.524-.234zm-.506 2.745c.407-.433.885-.289.939-.054.055.226-.56.56-.903.696-.325.144-.325-.371-.036-.642zm3.893-2.176c.298-.371.37-.47.578-.235.181.235-.054.515-.352.704-.271.199-.398-.235-.226-.469zm.054-2.538c.298-.262.56-.515.651-.289.09.234-.091.379-.28.569s-.651-.046-.371-.28zm-29.12 12.275c-.614.469-1.084.894.235.939s2.493-.605 3.351-1.31c.849-.713 1.545-.153.885.181-.65.334-.84 1.274-.18 1.174.659-.09 1.363-.325 2.818-1.319 1.463-.984 1.418 0 .749.56-.65.56-.84.904-.28.75.569-.135 3.92-2.159 5.329-3.053s.316-.614-.388-.524-.47-.37 0-.849c.479-.469.912-.704 1.599-1.553.704-.849-2.114-.045-3.198.325-1.084.379-1.364.054-.659-.641.704-.705 4.76-2.791 5.889-3.821s.388-1.508-.759-.695l-6.259 3.703c-1.274.659-2.15.108-1.129-.515 1.038-.614 3.766-2.168 4.94-3.197 1.175-1.039.913-1.373-.144-.949-1.03.425-3.387 1.743-4.796 1.933s-1.075-.334.153-.939 6.404-3.667 8.987-5.167c2.575-1.508 1.021-1.463.371-1.084s-7.1 3.668-8.463 4.137c-1.355.47-1.039-.235-.226-.849.804-.605 9.447-5.5 10.26-6.169.795-.641.371-.75-.388-.47-.741.28-7.479 3.767-8.707 4.092-1.219.334-.985-.37-.145-.939s7.867-4.995 8.744-5.591c.921-.614.56-1.463-.461-.813-1.039.659-9.972 5.175-11.01 5.699-1.03.515-1.509.091-.795-.424.704-.524 10.956-6.549 11.949-7.334.985-.804.145-1.039-.903-.66-1.039.371-8.517 4.372-9.312 4.887-.804.533-.939-.046-.37-.75.56-.705 8.318-5.076 9.059-5.835.759-.75.704-1.174-.632-.605-1.373.56-6.648 3.333-7.497 3.712s-1.545.235-.659-.325c.894-.56 7.153-4.29 7.858-5.04.722-.75.758-1.364-.335-.75-1.074.606-7.37 3.433-8.4 3.613-1.047.19-1.327.054-.343-.469s6.034-3.387 6.549-3.911c.523-.524.578-1.165-.226-.605-.813.569-5.365 2.402-6.314 2.827-.93.415-1.409-.669-.325-.994 1.093-.325 3.432-1.599 4.706-2.448 1.273-.858-.56-1.987-1.319-1.454-.749.515-3.242 1.509-4.561 2.204-1.319.704-1.924.144-1.265-.289.651-.406 3.803-2.023 4.318-2.294.533-.28-.75-1.319-1.075-1.463-.334-.145-2.168 1.038-2.872 1.318-.705.289-1.454-.045-1.129-.415a8.83 8.83 0 0 1 1.887-1.229c.47-.234.56-.803.75-1.363.181-.56 1.409-.19 2.014-.597.624-.433.804-.487 1.373-1.129.56-.668-.948-.614-1.318-.289-.38.326-1.409.849-1.744 1.129-.325.289-1.309-.189-1.924-.424s-1.129-.804-1.228-1.174c-.09-.371.19-1.409.668-1.789.485-.357.897-.805 1.211-1.318.198-.425-.371-.606-.84-.47s-1.22.984-1.5 1.409c-.289.424-1.652-.56-1.932-1.03-.29-.469.325-.524.885-.614.569-.09 1.607-.894 2.077-1.355.47-.469.75-.56.47-1.084-.289-.514-.849-.514-1.319-.18-.67.525-1.285 1.118-1.833 1.77-.181.289-.66.849-1.129.804s-.181-.985-.326-1.355c-.144-.379-.478-.704-.948-.704-.461 0-.705 0-.75-.479-.054-.47-.135-1.03.334-1.03.461 0 .56-.379.66-.984.081-.605-1.698-.605-2.213-.605-.524 0-.244-.371-.099-.904.135-.515-.569-.226-.651-.596-.099-.388-.244-2.682-.099-3.071.144-.379.47-.226.804-.379.325-.136.56-.56.65-.795.099-.235-.47-.659-.75-.695-.28-.064-.469.036-.659.225s-.424.849-.424.849c-.606.371-1.22.145-1.22-.234s0-.56.425-.84c.424-.289-.054-.569-.199-.949-.135-.37-.415-.515-1.075-.515s-.704-.794-1.364-1.318c-.659-.515.47-.515 1.554-.515s.334-.903-.28-1.698a12.84 12.84 0 0 0-2.05-2.033c-1.319-.072-2.909-.614-4.86-1.652l-.072-.055c-3.252.497-10.504 6.079-12.004 7.289v1.12c1.906-1.02 7.461-4.064 8.536-4.38 1.273-.38 1.978.235.523.614-1.309.325-7.054 4.462-9.059 5.772l.009 1.436c1.31-1.003 6.097-4.191 6.747-4.58.705-.424 3.008.515 1.03.795-1.951.28-6.431 4.327-7.768 5.149l.027 1.526c1.246-.668 4.435-3.053 5.763-3.477 1.463-.47 1.273.189.424.659a86.07 86.07 0 0 0-6.142 4.633l.036 1.093 3.947-2.52c.749-.433 1.318-.108.605.38-.705.46-3.523 3.522-4.417 4.182l-.045.036.09 1.364c.695-.479 1.535-1.202 2.358-2.024 1.029-1.029 1.878-.09 1.074.425-.713.452-2.303 2.646-3.26 3.622l.054.497.081.668c.876-.551 1.987-1.301 2.565-1.689.75-.515 1.599-.605 1.03-.09a58.27 58.27 0 0 0-3.324 3.676l.181 1.174c1.409-.985 3.423-2.466 3.992-2.972.849-.749 1.409-.099.705.47-.533.443-2.927 2.755-4.435 4.218l.253 1.698a19.23 19.23 0 0 0 1.409-1.111c.749-.659 1.129.045.469.705a30.84 30.84 0 0 0-1.652 1.887l.235 1.698c.967-.74 2.412-2.357 3.252-3.116.985-.894 1.463-.56.795.1-.524.533-2.71 2.863-3.902 4.127l.163 1.256c.993-.65 3.287-2.168 4.037-2.746.84-.659 1.508-.235.56.47-.768.569-3.125 3.206-4.354 4.588l.118 1.463c1.255-.966 4.615-3.387 5.365-3.938.849-.605 1.084-.271.524.28-1.904 1.787-3.834 3.546-5.79 5.275l.054 1.481c1.418-.975 5.076-3.892 5.736-4.588.749-.804 1.129-.054.56.614-.497.569-4.841 4.191-6.287 5.528a37.26 37.26 0 0 1-.027 1.418c1.482-.858 4.625-3.414 5.844-4.272 1.463-1.039 1.364-.334.56.46-.704.705-4.66 3.957-6.503 5.447a29.73 29.73 0 0 1-.19 1.86l.082-.036c1.454-.903 5.31-3.107 6.44-4.29 1.129-1.165 1.553-.325.56.479l-7.443 5.853a29.83 29.83 0 0 1-.434 1.824c1.536-1.156 7.136-5.058 8.166-6.042 1.074-1.021 1.598-.38.65.523-.786.75-7.217 6.648-10.071 8.942-.307.624-.632 1.238-1.003 1.816l-.208.307c1.481-.994 6.882-5.401 8.273-6.305 1.509-.984 1.554-.379.804.226-.741.605-7.488 6.856-8.472 7.804a11.68 11.68 0 0 0 .903.488c1.409-1.201 8.626-7.072 9.728-7.867 1.165-.849 1.219.153.515.614-.66.433-7.389 6.259-9.06 7.75.371.162.768.289 1.202.442.849-.704 6.412-5.013 7.198-5.663.795-.65 1.174-.226.705.334s-5.88 4.796-6.774 5.501l-.136.117c.434.145.912.253 1.409.38l5.492-3.64c1.102-.66 1.237-.56.442.189-.677.632-3.495 3.053-4.389 3.812.776.171 1.616.325 2.52.488.243-.172.551-.362.921-.578.632-.353.262.234-.099.704a110.75 110.75 0 0 0 5.961.741c.298-.208.56-.542 1.337-1.111 1.029-.759.614.289.072 1.237l1.011.09c.353-.253.68-.54.976-.858.704-.749 1.409-.56.903.145-.19.247-.336.525-.433.822l1.571.09 3.604-1.797c1.382-.678.957.072.343.542zm-16.764-65.574c-1.454.858-7.081 4.444-9.068 6.133l-.009 1.255c2.123-1.553 7.677-5.636 10.134-6.629l-1.057-.759zm-2.176-1.879c-1.346.994-5.094 3.523-6.856 4.923l-.018 1.065c1.689-1.219 6.314-4.507 7.659-5.247-.266-.242-.528-.489-.785-.741zm-1.536-1.716c-.885.56-3.92 2.448-5.266 3.568 0 .352 0 .704-.018 1.056 1.048-.767 4.227-2.89 5.826-3.965-.18-.216-.37-.433-.542-.659z"
		fill="#fff" />
	<path
		d="M127.279 157.305c-1.219.56-2.258.849-2.682 1.274s0 1.409.984.849c.994-.569 3.252-2.827 1.698-2.123zm-3.107-.984c-.704.28-2.962.704-1.978.144.994-.56 1.834-1.698 2.123-.984.28.695-.145.84-.145.84zm-18.904-39.805s-1.409.289-1.409.849c0 .569.65.804 1.409-.849zm.56 2.402s-1.265.425-.84.985c.415.569.704.144.84-.985z"
		fill="#000" />
	<path
		d="M137.712 245.514s1.291-1.554 5.925-2.403c4.678-.849 8.065-1.978 8.065-1.978s-1.002 1.418-5.645 2.818c-4.669 1.418-9.041 2.692-8.345 1.563zm7.957-5.88c3.902-.723 7.515-1.951 7.641-1.888.09.072-.921 1.319-5.094 2.565-4.128 1.229-8.066 2.367-7.551 1.382-.072.027.985-1.319 5.004-2.059zm2.032-3.469c3.143-.605 6.982-1.951 7.199-1.806.226.144-.813 1.237-4.516 2.294-3.613 1.057-7.109 2.069-6.774 1.247-.127.027.686-1.111 4.091-1.735zm2.023-3.477l6.775-1.707c.316.208-.723 1.147-3.939 2.032-3.089.894-6.16 1.734-5.997 1.093-.226.027.379-.903 3.161-1.418zm2.051-3.477c1.607-.353 5.907-1.906 6.349-1.626.425.28-.65 1.066-3.387 1.761-2.574.705-5.184 1.418-5.238.939-.28.064.09-.668 2.276-1.074zm2.014-3.478c.867-.226 5.401-1.888 5.943-1.535.515.352-.56.966-2.836 1.499-2.032.533-4.236 1.111-4.444.786-.361.072-.217-.452 1.337-.75zm2.023-3.468c.127-.118 4.868-1.879 5.501-1.454.65.424-.461.885-2.258 1.237-1.518.352-3.261.795-3.667.632-.443.082-.506-.226.424-.415zm2.05-3.478c-.668.018 4.327-1.851 5.067-1.354s-.37.794-1.68.966l-2.908.479c-.497.09-.813-.009-.479-.091zm2.006-3.477c-1.391.154 3.811-1.834 4.678-1.274.831.56-.298.705-1.129.705-.867 0-2.845.497-3.549.569zm1.345-2.945c-1.219.127 3.722-1.67 4.553-1.273.794.443-.208.686-1.075.768-.831.054-2.683.524-3.478.505zm1.319-2.944c-.984.108 3.613-1.499 4.462-1.265.741.308-.145.66-1.021.822-.831.109-2.52.524-3.441.443zm1.346-2.935c-.813.072 3.513-1.355 4.353-1.283.687.181-.072.641-.984.885-.795.172-2.367.551-3.369.398zm1.319-2.954c-.597.063 3.405-1.183 4.272-1.265.632.046 0 .615-.949.94-.785.226-2.231.569-3.323.325zm1.345-2.935c-.406.036 3.297-1.03 4.146-1.274.596-.072.072.596-.903 1.003-1.032.401-2.158.495-3.243.271zm1.319-2.945c-.19.018 3.206-.867 4.056-1.274.55-.207.144.579-.868 1.066-1.004.448-2.134.521-3.188.208zm1.328-2.944s3.107-.705 3.956-1.274c.858-.56-.569 2.403-3.956 1.274zm-55.738 52.495s3.667-1.554 7.054-1.834 11.995-1.553 13.828-3.242.985.849-.56 1.562c-1.544.696-10.161 3.098-13.259 3.098-3.107-.009-7.063.416-7.063.416zm1.129-2.963s2.538-2.818 7.759-3.143c3.396-.199 11.994-1.237 13.828-2.926 1.834-1.699.985.532-.56 1.237-1.554.704-10.161 3.107-13.268 3.107s-7.759 1.725-7.759 1.725zm3.432-3.866s2.565-2.682 7.461-3.016c3.233-.226 11.317-1.12 13.088-2.755 1.661-1.536.56.632-.985 1.291-1.508.651-9.439 2.855-12.365 2.873-2.881.027-7.163 1.598-7.199 1.607zm5.031-4.507s2.565-2.565 7.145-2.908c3.089-.244 10.649-.994 12.338-2.574 1.499-1.382.144.74-1.409 1.346-1.446.596-8.716 2.592-11.453 2.637-2.638.027-6.558 1.472-6.621 1.499zm15.626-11.696a12.28 12.28 0 0 0-6.512 2.664c.135-.063 3.287-1.21 5.473-1.264 2.367-.1 8.292-1.698 9.647-2.168 1.553-.515 3.423-2.529 2.258-1.454-1.59 1.436-8.084 1.933-10.866 2.222zm-3.622-1.147c.181-.064 2.954-1.084 4.923-1.148 2.167-.117 7.442-1.508 8.734-1.932a7.74 7.74 0 0 0 2.077-1.12c-2.077 1.047-7.162 1.372-9.511 1.652a12.74 12.74 0 0 0-6.223 2.548zm3.974-3.848c.19-.091 2.61-.958 4.354-1.039 1.978-.135 6.584-1.328 7.813-1.698.65-.172 1.445-.605 2.095-.984-2.15.812-6.295 1.02-8.346 1.3-2.141.306-4.174 1.138-5.916 2.421zm2.448-3.613c.226-.09 2.258-.822 3.775-.912 1.798-.163 5.736-1.165 6.937-1.464.65-.162 1.518-.578 2.24-.975-2.068.65-5.519.777-7.334 1.048-2.99.388-5.618 2.303-5.618 2.303zm4.679-4.561c.262-.118 1.923-.705 3.206-.813 1.608-.181 4.868-.976 5.997-1.238.705-.135 1.707-.578 2.52-.993-1.905.524-4.814.569-6.44.849-2.637.388-5.283 2.195-5.283 2.195zm2.962-3.776a11.29 11.29 0 0 1 2.647-.686c1.409-.199 4.001-.795 5.094-.994.777-.126 1.96-.641 2.908-1.084-1.707.425-4.2.425-5.663.696-2.321.397-4.986 2.068-4.986 2.068zm2.647-2.782c.316-.144 1.237-.442 2.068-.569l4.2-.768c.885-.108 2.348-.695 3.423-1.174-1.535.344-3.649.262-5.013.56-2.014.407-4.678 1.951-4.678 1.951zm9.456-4.977c-1.336.29-3.197.154-4.444.461a26.92 26.92 0 0 0-4.371 1.834c.984-.425 3.242-.849 4.796-.976.984-.099 2.8-.795 4.019-1.319zm38.423-3.278c-2.98-.253-8.824 1.364-9.176 1.761.126.948 2.7.352 10.125-.533 6.647-.786 6.277-2.917 6.259-3.269-.334.343-4.444 2.276-7.208 2.041zm-.46 3.17c-2.755-.235-7.903 1.039-8.608 1.834.072.758 2.421.144 8.662-.642 4.606-.56 5.239-1.878 5.383-2.429-1.669.892-3.547 1.319-5.437 1.237zm-.497 3.459c-2.448-.207-6.964.705-8.048 1.906.072.569 2.186-.081 7.235-.758 2.737-.353 3.757-1.012 4.218-1.491-.777.244-2.077.461-3.405.343zm-.461 3.46c-2.222-.19-6.069.379-7.478 1.978.036.388 1.905-.289 5.789-.876 1.906-.253 2.755-.705 3.207-1.039-.507.003-1.013-.019-1.518-.063zm-7.388 5.789c1.761-2.014 4.977-2.212 6.937-2.059 1.942.181 2.185.614.533.262-.56-.126-1.021.461-3.126.795-2.7.488-4.326 1.192-4.344 1.002zm-53.308 3.243s3.333-4.796 6.106-8.183c2.782-3.387-3.035 5.645-6.106 8.183zm-55.34 4.516s3.342-4.796 6.115-8.183c2.782-3.387-3.035 5.645-6.115 8.183zm-1.635-.424s3.351-4.797 6.133-8.184c2.773-3.387-3.044 5.646-6.133 8.184zm-3.866 1.02s3.342-4.796 6.124-8.183-3.035 5.645-6.124 8.183zm-.533-2.466s3.342-4.787 6.124-8.174c2.773-3.387-3.035 5.645-6.124 8.174zm1.102-5.916s3.342-4.805 6.124-8.192-3.035 5.636-6.124 8.192zm8.31-1.038s2.439-3.306 4.471-5.645c2.032-2.322-2.204 3.901-4.471 5.645zm4.823-2.168s2.439-3.306 4.471-5.645-2.213 3.893-4.471 5.645zm44.646 6.593s6.25-8.58 9.023-11.967c2.782-3.396-5.934 9.411-9.023 11.967zm-3.243.804s6.233-8.58 9.024-11.967-5.944 9.42-9.024 11.967zm-33.283-1.011s6.25-8.572 9.023-11.959c2.791-3.387-5.934 9.421-9.023 11.959zm-1.77-1.265s6.242-8.58 9.033-11.968c2.772-3.387-5.944 9.421-9.033 11.968zm25.661 7.849l13.684-18.01c2.782-3.387-10.595 15.463-13.684 18.01zm-36.879 1.463l13.684-18.01c2.773-3.387-10.595 15.472-13.684 18.01zm-2.186-.776l13.684-18.011c2.782-3.387-10.595 15.473-13.684 18.011zm36.074.117l13.684-18.001c2.782-3.387-10.604 15.463-13.684 18.001zm-2.989.145l13.683-18.011c2.791-3.387-10.594 15.472-13.683 18.011zm-2.629.569l13.684-18.002c2.782-3.396-10.604 15.454-13.684 18.002zm-1.996-.868l13.684-18.01c2.782-3.387-10.595 15.472-13.684 18.01zm-7.542.154l13.684-18.001c2.782-3.387-10.595 15.463-13.684 18.001zm-2.728.289l13.693-18.01c2.773-3.387-10.604 15.472-13.693 18.01zm-3.269.985l13.693-18.011c2.782-3.387-10.595 15.473-13.693 18.011zm-.479-2.258l13.693-18.011c2.773-3.387-10.595 15.472-13.693 18.011zm-3.983 1.978l13.684-18.011c2.782-3.387-10.595 15.473-13.684 18.011zm14.442-.018s7.533-10.171 12.347-16.024c2.773-3.396-9.258 13.485-12.347 16.024zm-1.038-2.078s7.533-10.17 12.347-16.041c2.782-3.387-9.258 13.494-12.347 16.041zm23.646-7.47s3.839-5.5 6.63-8.887c2.773-3.387-3.532 6.349-6.63 8.887zm-7.163 7.904s1.184-1.933 3.966-5.32c2.772-3.387-.877 2.782-3.966 5.32zm-9.926 1.382l13.675-18.002-13.675 18.002zm51.628 10.739s.921.388 6.81.253a19.99 19.99 0 0 0 3.071-.28l2.439-1.653-8.237.524a7.36 7.36 0 0 0-4.083 1.156zm-.704 3.233s.704.289 4.696.271l2.719-1.562a68.65 68.65 0 0 1-3.333.135c-2.52.009-4.082 1.156-4.082 1.156zm-31.893 8.536c-1.183 1.102-5.221 2.032-8.834 2.61l3.677.091 1.11-.019 3.487-1.129c1.544-.704 2.393-3.251.56-1.553zm69.151-52.116c5.834-.668 7.018-2.24 7.162-3.197-2.502 1.345-5.148 2.113-7.957 2.294a19.42 19.42 0 0 1-4.309-.172 53.99 53.99 0 0 0-6.476 1.49c.163 1.139 2.972.579 11.58-.415zm-10.993 23.285s3.225-1.698 5.221-1.273c.036.018.054.018.09.018.262-.28.515-.588.777-.886-1.698-.135-4.092-.135-6.088 2.141zm-131.256-9.8c-2.339-.063-4.959 1.59-5.88 2.213l.398.524c1.147-.705 3.45-.958 4.913-1.328 1.698-.424 3.459-1.346.569-1.409zm12.844-1.553c2.041-.452 1.662-1.689.587-1.771-1.498.347-2.963.822-4.381 1.418-4.913 2.511-9.574 7.488-10.956 9.06l1.03 1.192c5.004-6.323 11.462-9.412 13.72-9.899zm25.751 20.747l-1.265 1.689s1.265-.073 1.265-1.689zm-4.778 2.149l-1.273 1.689s1.273-.063 1.273-1.689zm.822 4.245l-1.102 1.464c0 .009 1.102-.046 1.102-1.464zm-3.938.443l-1.273 1.698s1.273-.072 1.273-1.698zm8.888-3.387l-1.273 1.698s1.273-.072 1.273-1.698zm3.523-4.164l-1.265 1.698s1.265-.072 1.265-1.698zm6.196 5.031l-1.273 1.689s1.273-.063 1.273-1.689zm-12.239 7.515l-1.03 1.382s1.03-.064 1.03-1.382zm-7.452-8.4l-1.264 1.698s1.264-.072 1.264-1.698zm-3.73 1.418l-1.698 2.258s1.698-.099 1.698-2.258zm-6.566-5.401l-.885 1.183s.885-.054.885-1.183zm4.516-1.039l-1.273 1.689s1.273-.072 1.273-1.689zm27.232 8.96l-1.264 1.698c0-.009 1.264-.072 1.264-1.698zm1.202 2.818l-1.274 1.698s1.274-.072 1.274-1.698zm-6.106-1.229l-1.093 1.446s1.093-.064 1.093-1.446zm1.418 2.539l-1.03 1.372s1.03-.054 1.03-1.372zm1.282 3.071l-.93 1.237c0-.009.93-.054.93-1.237zm-4.489 1.463l-.894 1.183s.894-.054.894-1.183zm-1.174-2.556l-1.273 1.698c0-.009 1.273-.082 1.273-1.698zm-1.056-4.029l-1.274 1.698s1.274-.072 1.274-1.698zm-1.491-2.646l-.984 1.309s.984-.054.984-1.309zm8.12-6.241l-1.264 1.698s1.264-.064 1.264-1.698zm4.164-1.202l-1.265 1.698c0 .009 1.265-.072 1.265-1.698zm1.391 3.315l-.93 1.237s.93-.054.93-1.237zm4.462-1.165l-.93 1.237s.93-.054.93-1.237zm4.381-1.265l-.94 1.238s.94-.054.94-1.238zm4.163-1.896l-.939 1.255s.939-.063.939-1.255zm8.211-8.156l-.949 1.237s.75-.045.949-1.237zm-40.654-1.698l-.948 1.246s.75-.054.948-1.246zm-9.023-8.753l-.939 1.247s.741-.054.939-1.247zm29.789 26.076l-1.274 1.698s1.274-.072 1.274-1.698zm-16.511 8.4l-1.273 1.698c0-.009 1.273-.081 1.273-1.698zm-7.108-4.444l-1.274 1.689s1.274-.072 1.274-1.689zm-2.908-9.809l-1.535 2.051c0-.009 1.535-.091 1.535-2.051zm-4.435 1.409l-1.264 1.699c0-.01 1.264-.073 1.264-1.699zm1.49 6.63l-1.273 1.698s1.273-.072 1.273-1.698zm-4.588-2.962l-1.273 1.698c0 .009 1.273-.073 1.273-1.698zm-.993-3.243l-1.273 1.698c0-.009 1.273-.081 1.273-1.698z"
		fill="#fff" />
	<path
		d="M183.152 77.144c0 .705.425 1.409.578 1.978.127.56 1.256.704 1.129.135l-.578-1.689c-.117-.425-1.129-1.129-1.129-.425zm-4.317-1.102c0 .65.37 1.346.479 1.87.144.515 1.219.641 1.111.118-.109-.542-.371-1.201-.497-1.608-.127-.424-1.111-1.048-1.093-.379zm-3.938-.388c0 .596.316 1.292.424 1.752.127.479 1.148.596 1.057.09-.054-.506-.298-1.129-.406-1.508-.082-.434-1.093-.966-1.075-.334zm-1.427-4.859c.018.596.316 1.002.442 1.472.109.47 1.129.596 1.057.09-.09-.506-.298-.858-.424-1.237-.082-.434-1.093-.957-1.075-.325zm-1.987 4.426c.018.551.262 1.237.352 1.653.108.425 1.075.533 1.039.063-.054-.479-.262-1.075-.334-1.418-.073-.443-1.093-.894-1.057-.298zm-3.378-.135c.036.488.226 1.165.298 1.544.09.361 1.002.461 1.002.018-.018-.433-.189-.993-.262-1.328-.045-.443-1.047-.804-1.038-.235zm-3.207.126c.036.443.181 1.111.226 1.436.072.334.948.415.967 0 .018-.406-.145-.93-.181-1.246-.045-.434-1.048-.714-1.012-.19zm-2.998.144l.162 1.319c.054.28.867.361.94-.027.054-.379-.091-.858-.109-1.138-.027-.461-1.03-.65-.993-.154zm-2.484.379c.054.334.072.984.108 1.228.036.217.795.298.903-.054.091-.352-.018-.795-.018-1.057-.009-.47-1.047-.578-.993-.117zm10.965-4.913c0 .551.28.939.37 1.364.109.415 1.039.524.985.063s-.28-.786-.353-1.129c-.081-.416-1.02-.876-1.002-.298zm5.121-3.694c.018.551.28.939.388 1.364.091.415 1.021.533.949.063-.054-.452-.244-.786-.352-1.129-.073-.406-1.003-.876-.985-.298zm-8.183 3.92c.018.488.244.876.316 1.246.09.37.939.47.903.054s-.207-.732-.28-1.039c-.099-.388-.957-.786-.939-.262zm-3.089.361c.018.415.19.804.262 1.12.072.334.831.416.813.045s-.181-.677-.244-.948c-.054-.361-.849-.686-.831-.217zm-2.683.307c.018.361.163.741.208 1.012s.741.343.723.018c0-.325-.127-.614-.163-.858-.045-.334-.786-.587-.768-.172zm-2.944.398c.018.298.126.668.162.885.055.226.633.289.651.009 0-.28-.091-.551-.127-.768-.018-.298-.704-.497-.686-.126zm12.419-8.472c0 .307.109.668.145.912.054.208.632.28.65 0 .018-.289-.09-.56-.108-.768-.037-.307-.723-.506-.687-.145zm1.427 3.423c0 .506.226.894.334 1.282.091.398.949.497.922.063s-.244-.75-.316-1.075c-.073-.388-.976-.813-.94-.271zm-3.017.081c.018.461.226.849.299 1.201.09.361.921.443.885.045-.036-.388-.217-.714-.28-1.012-.073-.37-.922-.741-.904-.235zm-3.387.181c.018.425.19.804.262 1.129.073.316.849.406.831.036-.036-.37-.189-.677-.244-.948-.054-.352-.867-.696-.849-.217zm-2.538.56c0 .379.163.759.226 1.048.072.289.759.37.759.027-.018-.343-.163-.632-.208-.894-.036-.334-.795-.614-.777-.181zm-3.107.461c.018.343.145.723.19.975.054.253.686.325.686.018 0-.316-.108-.596-.162-.831-.027-.316-.75-.551-.714-.163zm-2.755.461c.018.316.145.677.181.903.036.217.632.28.65 0s-.108-.551-.144-.759c-.018-.307-.705-.497-.687-.144zm-1.671 3.821c0 .244.073.614.091.786.036.172.551.226.56-.018.036-.235-.054-.497-.054-.668-.018-.271-.633-.407-.597-.099zm12.456-8.779a7.01 7.01 0 0 0 .108.777c.036.181.551.235.578-.009.018-.235-.054-.488-.072-.668-.018-.271-.632-.406-.614-.099zm-11.769 12.546c.054.325.072.948.108 1.165s.759.28.831-.054c.091-.334-.018-.759-.018-1.012-.009-.434-.975-.533-.921-.099zm-2.538.19l.09 1.102c.036.208.723.271.795-.045.09-.316 0-.723 0-.966-.009-.415-.939-.506-.885-.09zm-3.035.406l.072 1.057c.036.199.687.262.759-.045.09-.307 0-.686 0-.912 0-.397-.885-.488-.831-.099zm-3.017.47l.091 1.003c.018.181.65.244.704-.045.09-.298 0-.65 0-.867 0-.379-.831-.461-.795-.09zm-2.863.759l.09.948c.037.172.615.226.669-.045.09-.262 0-.614 0-.822 0-.352-.795-.434-.759-.081zm-3.116.479l.072.885c.036.163.578.217.632-.036.073-.253 0-.578 0-.768 0-.334-.74-.415-.704-.081zm-2.647.876l.055.822c.036.163.551.199.614-.027.054-.244-.018-.542-.018-.732 0-.307-.705-.379-.651-.063zm-2.637.75l.063.777c.027.144.524.19.578-.036s-.018-.506-.018-.677c0-.289-.65-.352-.623-.063zm-.885-3.351c.036.199.054.614.072.768.027.135.506.19.56-.036s-.018-.506-.018-.677c0-.28-.65-.352-.614-.054zm-1.572 4.254l.064.714c.027.135.469.181.523-.027.037-.208-.027-.47-.027-.623 0-.271-.596-.334-.56-.063zm4.489-4.986l.055.723c.036.126.478.172.532-.036s-.018-.47-.018-.632c0-.262-.605-.325-.569-.054zm-5.365 1.879l.063.723c.018.126.479.172.533-.036s-.009-.47-.009-.623c-.009-.271-.623-.334-.587-.063zm-1.716 3.965l.063.659c.018.126.434.172.479-.027.045-.19-.009-.424-.009-.578-.009-.244-.569-.298-.533-.054zm10.188-6.322l.055.659c.018.127.424.163.478-.027.036-.19-.018-.434-.018-.578 0-.253-.551-.307-.515-.054zm17.956-10.387c.037.19.055.542.073.668s.442.163.496-.027c.037-.199-.018-.434-.018-.578 0-.253-.569-.307-.551-.063zm-6.855 7.56l.054.668c.018.117.425.163.479-.027.054-.199 0-.434 0-.587-.009-.244-.569-.307-.533-.054zm12.501-8.662l.054.677c.018.117.442.154.497-.036.036-.19-.019-.434-.019-.578 0-.253-.569-.307-.532-.063zm-34.512 14.596l.054.659c.018.117.424.163.478-.027.046-.199-.009-.433-.009-.587-.009-.244-.56-.307-.523-.045zm23.312-12.338c.036.19.054.542.072.677.018.117.442.154.479-.036s-.018-.433-.018-.578c0-.253-.551-.307-.533-.063zm-5.447 1.048l.054.65c.018.117.443.172.497-.018.054-.199-.018-.434-.018-.587-.009-.244-.569-.307-.533-.045zm-19.844 15.436l.055.596c.018.117.397.154.442-.027.045-.172-.009-.397-.009-.533 0-.217-.515-.271-.488-.036zm48.35-10.866c.09.325.632.524.632.379.018-.108.226-.406.145-.804-.073-.361-.633-.686-.651-.452-.054.09-.289.452-.126.876zm3.911.623c.108.19.162.461.244.687.09.271.758.298.686-.127-.054-.262-.18-.388-.226-.56-.099-.415-.858-.388-.704 0zM98.494 57.671c.56-.217.443-.226.858-.226.424 0 .749.397.072.632-.506.172-.903.19-.903.19s-.172-.542-.027-.596zm-.994-1.978c.56-.208.443-.226.867-.226s.75.397.072.632c-.515.19-.903.199-.903.199s-.172-.551-.036-.605zm-1.987 3.053c.56-.199.434-.226.858-.226s.75.397.072.632c-.506.172-.894.19-.894.19s-.181-.542-.036-.596zm6.349-1.689c.56-.217.443-.235.859-.235.424 0 .749.407.072.632a3.17 3.17 0 0 1-.894.19s-.181-.542-.037-.587zm10.884 12.889c.56-.208.443-.226.867-.226.416 0 .75.397.064.632-.506.181-.895.199-.895.199s-.18-.551-.036-.605zm-1.002 26.338c.56-.208.433-.226.867-.226.424 0 .749.388.072.632-.515.181-.903.199-.903.199s-.181-.551-.036-.605zm-8.003-38.279c.443-.018.813.406.118.65-.542.199-.922.208-.958.217-.027.018-.226-.56-.063-.632.56-.208.479-.226.903-.235zm15.77 43.418c.452-.018.813.406.118.65-.542.19-.912.199-.94.217-.027.009-.234-.56-.063-.632.551-.208.461-.226.885-.235zm3.677-.994c.451-.018.803.416.108.66-.304.114-.624.181-.948.198-.028.018-.226-.551-.064-.614.569-.217.479-.235.904-.244zm-18.489-40.78c.469-.027.867.416.153.668-.56.208-.939.208-.993.235-.073.036-.289-.578-.1-.65.56-.217.515-.235.94-.253zm.849 1.834c.487-.045.93.424.198.695-.587.208-.957.199-1.056.253-.091.045-.335-.596-.118-.686.56-.226.551-.235.976-.262zM118.951 99.3c.497-.045.931.434.199.695-.587.216-.957.198-1.057.262-.09.045-.334-.606-.126-.687.569-.226.56-.244.984-.271zm-12.554-35.849c.514-.054.993.443.244.723-.624.226-.985.208-1.111.271s-.389-.614-.154-.714c.315-.169.664-.264 1.021-.28zm11.434 31.333c.515-.063.985.443.235.714-.614.235-.984.217-1.102.28-.135.054-.379-.614-.153-.732a2.6 2.6 0 0 1 1.02-.262zm3.938-3.812c.515-.054 1.003.443.253.714-.623.235-.984.217-1.111.28s-.388-.614-.153-.714c.569-.235.587-.244 1.011-.28zm-.523-2.529c.505-.063.975.443.225.714-.614.235-.975.217-1.102.271-.126.072-.388-.605-.162-.713.324-.161.677-.253 1.039-.271zm-5.501-14.975c.515-.063.994.443.244.713-.614.226-.985.208-1.102.271-.127.072-.388-.605-.163-.713a2.56 2.56 0 0 1 1.021-.271zm-1.129-2.123c.515-.054.993.443.244.723-.614.226-.985.208-1.102.271-.127.063-.388-.596-.154-.714.56-.235.596-.235 1.012-.28zm8.427 24.712c.515-.063.994.434.244.714-.614.226-.976.208-1.111.271-.118.063-.388-.605-.145-.714.56-.226.587-.244 1.012-.271zm-15.797-31.053c.524-.072 1.047.452.28.741-.642.244-1.003.217-1.156.298-.163.072-.443-.641-.19-.75a2.78 2.78 0 0 1 1.066-.289zm.84 2.123c.551-.09 1.111.461.325.75-.669.262-1.021.226-1.201.316-.19.108-.497-.641-.217-.777.343-.164.713-.262 1.093-.289zm8.933 25.037c.55-.09 1.101.452.325.75-.678.262-1.03.226-1.211.316-.189.099-.496-.641-.207-.777.343-.164.713-.262 1.093-.289zm5.554 1.165c.56-.09 1.111.452.325.75-.668.253-1.02.226-1.201.316-.189.099-.497-.641-.217-.777.569-.235.669-.244 1.093-.289zM108.79 68.681c.578-.108 1.174.461.37.768-.695.271-1.038.226-1.255.343-.226.099-.551-.659-.244-.813.56-.235.714-.244 1.129-.298zm7.253 21.244c.569-.108 1.165.461.37.768-.695.271-1.047.235-1.264.334-.217.117-.542-.659-.235-.804.56-.235.705-.244 1.129-.298zm4.462-3.893c.578-.099 1.174.47.379.777-.695.271-1.047.226-1.282.343-.217.099-.542-.668-.235-.813.569-.235.722-.253 1.138-.307zm-.849-1.834c.587-.099 1.174.47.379.777-.695.271-1.047.226-1.273.334-.217.108-.542-.659-.235-.804.56-.235.704-.253 1.129-.307zm-.985-2.258c.578-.099 1.175.47.38.777-.705.271-1.048.226-1.274.334-.217.108-.542-.659-.235-.804.56-.235.705-.253 1.129-.307zm-9.032-11.146c.596-.126 1.229.479.416.795-.723.28-1.066.226-1.31.352-.253.135-.605-.677-.28-.831.569-.244.75-.253 1.174-.316zm5.79 17.134c.605-.127 1.237.47.424.786-.731.289-1.074.235-1.318.361-.253.126-.605-.677-.271-.831.56-.244.74-.262 1.165-.316zm-5.112-15.264c.614-.136 1.291.488.46.813-.749.298-1.084.235-1.364.379-.289.136-.668-.695-.307-.867.56-.244.786-.253 1.211-.325zm4.507 12.699c.623-.126 1.291.488.46.813-.749.298-1.084.235-1.364.379s-.659-.695-.298-.867c.56-.244.786-.253 1.202-.325zm2.962-5.645c.623-.126 1.301.488.461.813-.75.298-1.084.235-1.364.379s-.65-.695-.298-.867c.56-.244.786-.253 1.201-.325zm-6.675-5.239c.642-.145 1.355.488.506.831-.777.316-1.111.244-1.418.397-.316.154-.704-.714-.334-.894.569-.244.831-.253 1.246-.334zm3.108 8.608c.641-.144 1.354.497.505.831-.776.316-1.111.244-1.427.397-.307.163-.704-.705-.325-.894.56-.244.822-.253 1.247-.334zm-2.457-6.097c.659-.181 1.409.488.542.84-.804.334-1.129.253-1.473.424s-.758-.732-.361-.921c.569-.262.867-.271 1.292-.343zm1.571 4.101c.669-.163 1.418.497.551.849-.804.334-1.129.253-1.472.424s-.759-.732-.361-.921c.56-.262.849-.271 1.282-.352zm3.686-3.559c.659-.163 1.409.497.541.849-.803.325-1.129.244-1.472.424-.343.163-.759-.732-.361-.93.569-.253.867-.262 1.292-.343zM96.66 60.064c.443-.009.822.416.117.668-.542.19-.921.199-.966.217-.036.018-.235-.569-.063-.641.56-.208.488-.235.912-.244zm.56 1.698c.479-.036.903.425.181.687-.578.217-.948.208-1.03.253-.081.027-.316-.596-.108-.686.56-.217.533-.235.957-.253zm11.39 35.587c.478-.036.903.415.18.695-.578.199-.948.199-1.029.235s-.317-.587-.109-.677c.56-.217.533-.235.958-.253zm.289 2.538c.469-.036.903.425.18.687-.587.207-.957.207-1.038.244-.073.045-.308-.588-.109-.669.56-.226.542-.235.967-.262zm.84 1.834c.478-.036.903.424.18.686-.578.208-.948.208-1.029.244-.082.045-.308-.587-.109-.668.56-.226.533-.235.958-.262zM97.364 64.02c.506-.054.975.433.235.713-.614.226-.984.217-1.102.271s-.379-.614-.144-.713c.56-.226.587-.244 1.012-.271zm10.297 31.044c.515-.054.985.434.235.714-.614.217-.966.208-1.093.262-.126.063-.379-.605-.144-.705.311-.161.652-.253 1.002-.271zm-9.448-29.355c.533-.072 1.048.452.28.741-.641.244-1.003.217-1.165.298-.153.081-.443-.632-.181-.75.332-.168.695-.266 1.066-.289zm.705 1.843c.56-.099 1.129.452.343.759-.677.262-1.039.226-1.237.325s-.506-.659-.217-.786c.56-.235.686-.244 1.111-.298zm7.975 25.064c.56-.099 1.138.461.353.759-.687.262-1.039.226-1.238.325-.189.099-.515-.65-.226-.786a3.01 3.01 0 0 1 1.111-.298zm-7.957-23.032c.596-.108 1.21.47.397.786-.704.28-1.057.235-1.292.352-.244.117-.587-.668-.262-.831.56-.235.732-.244 1.156-.307zm7.172 21.108c.596-.108 1.21.47.397.786-.704.28-1.048.235-1.292.352-.234.117-.578-.677-.262-.831.57-.235.741-.244 1.157-.307zm-6.287-19.555c.614-.135 1.292.479.452.804-.741.298-1.075.235-1.355.379-.271.145-.65-.695-.289-.858.551-.253.768-.262 1.192-.325zm5.275 17.053c.614-.135 1.283.479.452.813-.75.298-1.084.235-1.364.379-.28.135-.642-.705-.298-.867.569-.244.785-.253 1.21-.325zm-4.435-14.984c.641-.154 1.373.488.515.831-.786.325-1.111.253-1.436.406-.316.163-.714-.714-.334-.894.56-.262.831-.262 1.255-.343zm3.812 12.699c.641-.154 1.364.497.515.84-.786.316-1.12.244-1.427.406-.317.154-.714-.723-.335-.903.551-.253.822-.262 1.247-.343zm-3.161-10.604c.668-.181 1.436.506.559.858-.803.334-1.129.244-1.49.434-.361.172-.786-.75-.37-.939.56-.262.876-.262 1.301-.352zm2.682 8.924c.677-.172 1.436.506.569.858-.822.334-1.138.244-1.499.434-.362.181-.786-.741-.371-.939.56-.253.877-.262 1.301-.352zm-2.032-6.973c.704-.199 1.517.515.623.876-.849.361-1.165.262-1.563.461s-.849-.759-.406-.975c.56-.253.921-.262 1.346-.361zm.984 4.796c.705-.19 1.518.515.624.885-.849.352-1.157.253-1.563.461-.397.19-.849-.759-.406-.985.56-.253.93-.262 1.345-.361zm-2.872-22.779c.479-.027.867.425.154.677-.56.199-.94.199-1.003.235-.063.027-.28-.578-.09-.659.56-.217.515-.235.939-.253zm12.085 34.277c.47-.018.876.425.163.677-.56.199-.949.199-1.003.235-.063.027-.289-.578-.09-.659.551-.217.515-.235.93-.253zm2.285 7.162c.47-.018.876.425.154.678-.56.207-.939.207-.994.234-.072.037-.289-.578-.099-.659.56-.217.515-.226.939-.253zm.56 1.843c.461-.027.867.415.154.668-.569.208-.939.208-1.003.235-.063.036-.28-.578-.099-.65.569-.217.524-.235.948-.253zm-4.534 1.725c.47-.036.876.415.163.668-.56.208-.94.208-1.003.244-.063.018-.28-.587-.09-.668.551-.217.506-.235.93-.244zm-9.673-43.743c.505-.063.984.433.235.713-.615.235-.976.217-1.102.28-.126.054-.388-.623-.154-.714.56-.235.596-.253 1.021-.28zm9.727 28.74c.506-.063.994.442.244.713-.614.226-.984.208-1.102.271-.135.072-.388-.605-.153-.714.313-.163.658-.255 1.011-.271zm.994 2.394c.506-.054.984.443.244.723-.623.226-.985.208-1.111.271s-.389-.605-.154-.713c.56-.235.596-.235 1.021-.28zM101.51 62.647c.56-.09 1.111.452.334.75-.668.262-1.02.226-1.21.316-.19.099-.497-.641-.217-.777.569-.235.669-.244 1.093-.289zm8.59 24.297c.551-.09 1.111.452.325.75-.668.253-1.021.226-1.21.316-.19.099-.488-.641-.208-.777.56-.235.668-.244 1.093-.289zm-7.867-22.472c.596-.117 1.237.479.415.795-.722.289-1.066.235-1.318.361-.253.118-.597-.677-.262-.84.551-.235.74-.253 1.165-.316zm7.316 20.422c.596-.126 1.237.461.415.786-.722.289-1.056.226-1.309.352s-.596-.677-.271-.831c.56-.244.74-.253 1.165-.307zm-6.603-18.588c.651-.154 1.355.488.506.831-.777.307-1.102.244-1.418.397s-.704-.713-.325-.894c.56-.253.822-.253 1.237-.334zm5.627 16.502c.642-.153 1.355.488.506.831-.777.316-1.111.244-1.427.397-.307.153-.704-.714-.325-.894.56-.244.822-.253 1.246-.334zm-4.904-14.677c.686-.181 1.472.515.587.876-.822.334-1.138.244-1.517.443-.38.181-.813-.75-.389-.957.56-.262.894-.262 1.319-.361zm4.254 12.094c.677-.181 1.472.524.587.876-.831.343-1.147.253-1.526.443-.371.181-.813-.759-.389-.957.569-.253.904-.262 1.328-.361zm4.652-1.409c.686-.181 1.472.506.596.867-.831.352-1.147.262-1.527.443-.379.19-.813-.75-.388-.948.569-.262.903-.271 1.319-.361zm3.956-3.532c.677-.172 1.472.515.587.876-.831.343-1.147.253-1.527.443-.37.181-.812-.75-.379-.957.56-.253.894-.262 1.319-.361zm-12.14-5.049c.723-.199 1.59.533.669.921-.876.361-1.183.253-1.626.479-.433.217-.912-.777-.443-1.012.57-.271.976-.271 1.4-.388zm2.819 8.337c.722-.208 1.589.533.668.912-.876.37-1.183.262-1.626.488-.433.217-.912-.786-.451-1.021.569-.262.984-.262 1.409-.379zm-4.697 1.048c.731-.217 1.589.524.677.903-.885.37-1.192.262-1.626.488-.442.217-.921-.777-.451-1.012.56-.271.975-.271 1.4-.379zm2.601-7.542c.768-.253 1.707.542.759.939-.94.397-1.238.271-1.734.524s-1.021-.813-.506-1.066c.569-.28 1.057-.28 1.481-.398zm1.364 4.119c.768-.244 1.716.542.768.948-.94.397-1.238.271-1.735.524-.505.253-1.029-.813-.505-1.066.56-.28 1.047-.28 1.472-.406zm-.65-2.294c.813-.28 1.833.56.849.985s-1.274.28-1.834.569c-.569.28-1.129-.849-.569-1.129.569-.289 1.129-.289 1.554-.425z"
		fill="#000" />
	<path
		d="M99.252 88.66c-2.583 3.667-6.666 7.804-10.64 11.814l-.677.687c1.481.533 4.155 1.662 4.281 2.655.135 1.201 0 3.46-.994 4.381-.984.912-2.755 2.186-3.812 2.041-1.057-.135-1.481-.56-1.481-1.481 0-.912.921-1.274 1.698-1.337.777-.072 1.337-.777 1.337-1.346 0-.56-.705-1.129-1.337-1.833-.473-.471-.834-1.042-1.057-1.671l-1.761 1.788c-3.071 3.207-2.367 6.106-.822 7.605 1.319 1.292 3.541 1.852 5.049.334 2.195-2.185 6.314-6.051 9.547-9.05a9.77 9.77 0 0 1 4.263-4.146c-1.278-3.453-2.476-6.934-3.595-10.441z"
		fill="#fff" />
	<path
		d="M92.848 104.873c-.108-.641 1.264 1.481.56 1.481s-.424-.632-.56-1.481zm6.422-14.325l2.394 6.639c.144.849-.56 1.201-.84.135-.289-1.057-3.252-7.759-1.554-6.774zm-.993 1.978c.415 1.039 1.553 4.092 1.698 5.085.144.984-.569 2.114-1.057 1.057-.497-1.057-1.906-4.444-1.906-5.139 0-.722.984-1.707 1.264-1.002zm-1.617 2.899c.47.768 1.274 3.387 1.49 4.227.208.849-.289 3.459-.849 1.625a40.07 40.07 0 0 0-2.05-4.94c-.289-.56.56-2.33 1.409-.912zm-1.906 2.258c.93 1.12 1.617 3.522 1.897 4.227s-.424 1.625-.984.641c-.56-.994-.984-2.33-1.617-3.324-.641-.984 0-2.394.704-1.544zm-1.906 2.393c1.048.47 1.761 2.123 1.834 2.89.072.777.352 2.195-.424 1.554-.777-.632-2.041-2.186-2.258-3.179-.208-.985.217-1.545.849-1.265z"
		fill="#000" />
	<g fill="#fff">
		<path
			d="M78.93 130.407l.443-2.945c.262-1.68.551-3.865 1.192-5.717-.651 1.849-1.144 3.749-1.472 5.681-.262 1.698-.163 2.963-.163 2.981zm-1.879-3.776c-.009 0 .036-.496.063-1.237.018-.741-.018-1.797.253-2.89-.27.944-.451 1.912-.542 2.89-.025.425.052.849.226 1.237zm-3.956-8.454l.596-2.664c.325-1.472.668-3.297 1.219-4.498-.637 1.424-1.136 2.906-1.49 4.426-.325 1.49-.316 2.709-.325 2.736zm-1.319-5.085l.325-1.111c.19-.65.388-1.553.939-2.276-.525.651-.934 1.387-1.21 2.177-.19.668-.045 1.174-.054 1.21zm-.75-3.775l.108-.876c.072-.506.145-1.22.587-1.753a3.61 3.61 0 0 0-.867 1.689c-.072.551.163.913.172.94zm2.204-12.031c-.578.47-1.364 1.698-1.933 2.935-.56 1.238-.804 2.439-.84 2.538 0-.027.506-1.12 1.066-2.348s1.165-2.683 1.707-3.125zm-1.572-1.879c.406-.632.831-1.436 1.192-1.707a6.59 6.59 0 0 0-1.4 1.508c-.434.632-.596 1.301-.623 1.355.009-.018.416-.533.831-1.156zm1.003-6.025a1.57 1.57 0 0 0-.634.234c-.192.123-.355.287-.477.479-.226.37-.153.777-.163.804l.37-.623c.208-.325.479-.822.903-.894zm-1.174-2.737c-.379.587-.443 1.21-.47 1.255l.686-1.066c.361-.569.795-1.328 1.337-1.599-.63.328-1.165.814-1.553 1.409zm46.525-77.244l.334 2.105.605 2.032-.325-2.095-.614-2.041zm29.581.479l-.091-.018-.46 1.192-.298 1.355.072.027.497-1.292.28-1.265zm-2.466-.569a.32.32 0 0 1-.09-.018l-.533 1.292-.28 1.084.126.036.425-1.03.352-1.364zm-2.565-.497l-.082-.018-.424 1.138-.235 1.21.09.018.407-1.156.244-1.192zm7.469 1.698l-.072-.018-.659 1.4-.416 1.382.082.036.605-1.319.46-1.481zm-12.582-2.457l-.099-.009-.099 1.255.135 1.563.036-.009.118-1.554-.091-1.246zm2.132.28l-.117-.018-.235.975-.1 1.391h.046l.334-1.355.072-.994zm-4.39-.515l-.135-.018.135 1.246.479 2.068-.208-2.114-.271-1.183zm-2.691-.199l-.072-.009.307 1.915.569 2.023.054-.018-.334-2.068-.524-1.843zm-1.807-.09h-.09l.361 1.996.642 2.366.045-.009-.425-2.421-.533-1.933zm-2.673-.054h-.063l.551 2.529.758 2.439.063-.018-.55-2.493-.759-2.457zm-1.165 4.001l-.524-2.213-.66-1.761h-.045l.434 1.843.795 2.132zm-1.87.75l-.533-2.674-.605-1.987h-.072l.406 2.059.804 2.601zm-2.086-.379l-.714-2.493-.668-1.653-.091.009.497 1.734.976 2.403zm-8.274.56l-.714-2.113-.758-1.563-.063.009.56 1.653.975 2.014zm-3.008-1.879c.018.072.118.966.47 2.014s.939 2.222 1.409 3.071c-.461-.831-.804-2.159-1.156-3.206l-.723-1.879zm-2.258.569c.009.072.063 1.111.371 2.231.265 1.02.712 1.983 1.318 2.845-.451-.542-.758-1.879-1.056-2.99l-.633-2.086zm-2.258.379c.009.072.063 1.102.38 2.204.231.935.649 1.813 1.228 2.583-.407-.515-.696-1.716-.976-2.737l-.632-2.05zm-1.888 1.499l.913 2.312 1.156 2.204-.903-2.312-1.166-2.204zm-2.628-.19l1.192 2.511 1.436 2.384-1.183-2.511-1.445-2.384zm-1.888.75l1.283 3.45 1.544 3.324-1.282-3.441-1.545-3.333zm-2.258.759l1.192 2.791 1.445 2.665-1.183-2.791-1.454-2.664zm-2.628 1.499l1.572 2.809 1.815 2.656-1.572-2.809-1.815-2.655zm-1.888.948l1.951 3.45 2.195 3.324-1.951-3.459-2.195-3.315zm-2.068.379l2.421 4.39 2.665 4.263-2.412-4.408-2.674-4.245zm-2.258.93l2.24 3.468 2.466 3.306-2.24-3.468-2.466-3.306zm-.56 2.827l2.041 3.188 2.285 3.017-2.05-3.179-2.276-3.026zm-2.827-.19l2.899 4.227 3.125 4.056-2.899-4.227-3.125-4.056zm-2.448 2.078l2.719 3.288 2.926 3.107-2.71-3.297-2.935-3.098zm-1.319 1.689l2.908 3.658 3.116 3.486-2.899-3.658-3.125-3.486zm-2.999.19l3.929 4.697 4.155 4.516-3.938-4.697-4.146-4.516zm-1.517 1.879l3.378 3.857 3.586 3.676-3.378-3.866-3.586-3.667zm-2.439 1.129l3.288 3.486 3.486 3.288-3.288-3.486-3.486-3.288zm0 2.818l2.439 2.737 2.646 2.538-2.448-2.737-2.637-2.538zm-2.637.948l2.818 2.737 3.017 2.529-2.827-2.737-3.008-2.529zm.19 3.387l2.258 1.987 2.448 1.779-2.267-1.996-2.439-1.77zm3.947 6.205l-2.637-2.457-2.818-2.24 2.637 2.457 2.818 2.24zm-2.628.379l-2.827-2.746-3.008-2.529 2.818 2.746 3.017 2.529zm-1.319 1.319l-2.547-2.096-2.728-1.861 2.556 2.095 2.719 1.861zm-.379 2.818l-3.396-2.655-3.568-2.421 3.396 2.655 3.568 2.421zm.19 1.698l-5.013-3.044-5.148-2.791 5.013 3.035 5.148 2.8zm-9.032-2.258l2.276 1.535 2.43 1.283-2.276-1.535-2.43-1.283zm-.75 11.85l-3.134-1.725-3.27-1.472 3.143 1.725 3.261 1.472zm-.379 2.077l-4.272-1.834-4.381-1.554 4.272 1.825 4.381 1.563zm-6.024-.379l-1.734-.795-1.843-.524 1.743.786 1.834.533zm4.326 4.895l-5.401-2.303-5.51-2.032 5.41 2.294 5.501 2.041zm-.939 1.879l-6.566-.713-6.602-.416 6.575.705 6.593.424zm-8.463 6.585c-1.87 0-4.263.235-6.196.605-1.933.379-3.36.948-3.387.957l3.432-.677c1.924-.37 4.299-.885 6.151-.885zm-4.326 3.757a24.06 24.06 0 0 0-5.139.876c-1.508.443-2.529 1.057-2.556 1.066l2.637-.795c1.49-.452 3.396-1.048 5.058-1.147zm-4.471 3.161l-3.062 1.174 3.152-.903 3.071-1.174-3.161.903zm8.797-.524c-.045 0-.578-.135-1.544.036a25.63 25.63 0 0 0-4.092 1.283c1.743-.65 3.179-.84 4.146-1.012l1.49-.307zM48.202 81.1c-.099.027-1.319.172-2.664.596-1.355.424-2.791 1.093-3.55 1.662.732-.551 2.348-.993 3.703-1.418l2.511-.84zm.75 1.689l-4.688 1.987-6.602 3.477c1.391-.84 4.263-2.077 6.729-3.225l4.561-2.24zm-.939 2.637l-5.736 2.321c-2.827 1.283-5.745 2.854-6.684 3.694.921-.831 4.083-2.213 6.937-3.495l5.483-2.52zm4.706-.181c-.054.018-3.062 1.273-6.864 3.27-3.812 2.005-8.409 4.742-11.959 7.271 3.532-2.511 8.283-5.013 12.085-7.009l6.738-3.532zm-3.197 3.938c-.054.027-2.439 1.093-5.564 2.836-3.134 1.743-6.982 4.155-10.242 6.395 3.252-2.24 7.253-4.417 10.378-6.16l5.428-3.071zm5.455-.75c-.045.018-2.592.921-6.729 3.495-4.128 2.583-9.8 6.828-16.421 13.06 5.077-4.811 10.624-9.102 16.556-12.807 4.119-2.574 6.548-3.73 6.593-3.748zm-10.459 9.683c4.652-3.739 7.948-5.69 8.012-5.726-.063.036-3.514 1.743-8.174 5.51-6.061 4.946-11.36 10.759-15.725 17.252 4.425-6.432 9.779-12.173 15.888-17.035zm8.572-3.848c-.081.063-4.381 3.396-9.583 8.653-5.193 5.257-11.245 12.401-15.246 19.762 3.992-7.334 10.279-14.325 15.454-19.572 5.185-5.239 9.294-8.78 9.376-8.843zm-3.197 6.205c-.072.081-3.92 4.02-8.409 9.511-4.489 5.483-9.592 12.474-12.853 18.155 3.252-5.663 8.707-12.419 13.187-17.893l8.075-9.773zm3.017.569c-.09.109-4.895 5.338-10.134 12.302s-10.875 15.608-13.575 21.957c2.683-6.313 8.815-14.686 14.036-21.641l9.673-12.618zm1.129 3.387c-.099.127-5.049 6.305-10.405 14.181-5.347 7.876-11.074 17.396-13.684 23.646 2.592-6.214 8.824-15.49 14.162-23.348l9.926-14.479zm-2.077 8.463c-.072.127-4.173 6.305-8.698 13.838a340.36 340.36 0 0 0-11.995 21.542c2.511-5.113 7.831-13.793 12.356-21.325l8.337-14.055zm1.129 3.957l-10.848 19.03-10.595 19.167 10.848-19.022 10.595-19.175zm-8.364 23.7c3.802-6.792 6.946-13.06 7-13.178l-7.235 13.016c-3.803 6.774-7.984 14.225-10.026 16.745 2.05-2.529 6.458-9.809 10.261-16.583zm11.706-15.255c-.063.126-3.179 6.675-7.479 14.867s-9.755 18.082-14.867 24.676c5.121-6.603 10.812-16.349 15.111-24.55 4.308-8.201 7.172-14.867 7.235-14.993zm1.553 3.974c-.072.171-3.947 8.77-7.786 20.395-3.848 11.633-7.65 26.193-8.4 38.125.75-11.878 4.968-26.402 8.806-37.999 3.83-11.597 7.307-20.35 7.379-20.521zm-.939 8.842c-.054.181-2.89 8.364-5.681 17.875-2.791 9.502-5.519 20.278-6.178 25.399.659-5.103 3.803-15.807 6.584-25.299l5.275-17.975zm-2.258 14.307l-3.432 13.711-3.152 13.756 3.432-13.701 3.152-13.766zm3.712-7.722l-4.119 18.832c-2.105 9.574-4.308 19.69-5.239 21.831.93-2.15 3.342-11.895 5.419-21.343 2.087-9.457 3.785-18.579 3.938-19.32zm3.577-4.336l-4.435 18.995c-2.321 9.863-4.85 20.675-6.241 24.487 1.4-3.821 4.191-14.551 6.521-24.424 2.321-9.872 4.11-18.868 4.155-19.058zm-1.346 17.541c-1.825 9.041-3.893 19.022-5.383 22.743 1.49-3.73 3.83-13.629 5.654-22.68 1.834-9.059 3.116-17.251 3.143-17.414a1566.6 1566.6 0 0 1-3.414 17.351zm2.339 2.421c.939-1.969 2.077-6.964 2.872-11.616.786-4.66 1.165-8.933 1.21-9.276a666.66 666.66 0 0 1-1.463 9.023c-.795 4.688-1.698 9.918-2.619 11.869zm85.002-144.633c-1.978-.948-4.272-1.608-7.776-2.258l-.073.741c.145 0 .316.036.479.099 2.981.388 6.214 2.041 7.054 2.502l.316-1.084zm-7.198 2.448l1.924.533c1.165-5.266-1.111-1.861-1.924-.533zm-.335-3.803l-.46-.054-.298 3.559.966.262c.669-2.303.352-3.523-.208-3.766z" />
		<path
			d="M145.244 19.401l1.644.443.334-1.138c.407-4.29-1.626-.036-1.978.695zm-2.393-.677l2.258.623c1.111-6.458-1.996-1.075-2.258-.623zm-6.865 3.242c2.023-.641 1.111-2.574-.144-2.448C95.54 28.145 78.966 52.36 72.237 68.871l.497-.867A77.49 77.49 0 0 1 89.805 44.15c11.832-11.2 27.367-18.191 46.181-22.183zm.181-8.336c-9.141 1.517-36.851 8.093-56.424 33.799-9.43 12.391-15.192 25.66-17.143 39.416-1.4 9.917-.641 19.943 2.068 27.711a1.13 1.13 0 0 1 .19.325c.036.117.605.334 1.255.144.569-.171.695-.46.704-.722-2.33-7.235-2.339-13.422-2.339-17.396 0-.777.072-6.846 2.33-14.804a75.35 75.35 0 0 1 10.215-25.94 77.98 77.98 0 0 1 21.641-22.635c10.441-7.298 23.068-12.519 37.538-15.535 2.096-.407 1.337-4.444-.036-4.363zm3.965 6.034s-.668-.199-.759.37c-.108.56-1.318 17.495-1.318 17.495l2.077-17.866zm.93.181l-1.978 16.935 2.818-16.556c.009-.28-.469-.379-.84-.379z" />
	</g>
	<path
		d="M195.825 16.439h-1.355v-6.323h2.366c1.644 0 2.592.47 2.592 1.915 0 1.165-.686 1.581-1.517 1.644l1.608 2.764h-1.608l-1.445-2.655h-.632l-.009 2.656z"
		fill="#000" />
	<path d="M197.026 12.708c.596 0 .948-.117.948-.813 0-.659-.704-.705-1.219-.705h-.939v1.517h1.21z" fill="#fff" />
</svg>