<svg xmlns="http://www.w3.org/2000/svg" viewBox="0 0 256 256">
	<g fill-rule="evenodd">
		<path
			d="M21.83 99.209H11.294v36.671h10.399c5.611 0 9.578-1.233 13.136-4.242 4.105-3.42 6.704-8.621 6.704-14.094 0-10.808-8.074-18.335-19.704-18.335zm8.347 27.639c-2.325 1.917-5.201 2.874-9.852 2.874H18.41v-24.219h1.915c4.651 0 7.388.821 9.852 2.873 2.462 2.189 3.968 5.611 3.968 9.168s-1.506 7.116-3.968 9.304zm14.641 9.033h7.115V99.209h-7.115v36.672zm24.628-22.578c-4.379-1.641-5.61-2.599-5.61-4.652 0-2.326 2.325-3.967 5.336-3.967 2.189 0 3.968.821 5.747 2.872l3.831-4.787c-3.148-2.738-6.841-4.106-10.809-4.106-6.568 0-11.493 4.516-11.493 10.535 0 5.063 2.325 7.527 9.031 9.989 2.874.958 4.242 1.642 4.926 2.052 1.505.959 2.189 2.325 2.189 3.831 0 3.011-2.326 5.2-5.61 5.2s-6.157-1.778-7.8-4.926l-4.514 4.516c3.284 4.787 7.251 6.977 12.724 6.977 7.388 0 12.589-4.925 12.589-12.04-.001-5.885-2.464-8.485-10.537-11.495zm12.726 4.241c0 10.809 8.484 19.156 19.429 19.156 3.011 0 5.747-.548 8.895-2.053v-8.484c-2.874 2.873-5.337 4.105-8.621 4.105-7.115 0-12.314-5.336-12.314-12.726 0-6.977 5.336-12.587 12.04-12.587 3.421 0 6.021 1.231 8.895 4.105v-8.347c-3.011-1.643-5.61-2.326-8.758-2.326-10.809.001-19.566 8.622-19.566 19.157z"
			fill="#000" />
		<path
			d="M132.568 99C121.758 99 113 107.484 113 117.882c0 11.221 8.347 19.43 19.568 19.43 10.944 0 19.566-8.347 19.566-19.157C152.135 107.484 143.65 99 132.568 99z"
			fill="url(#A)" />
		<path
			d="M168.511 123.839l-9.715-24.629h-7.937l15.6 37.627h3.832l15.872-37.627h-7.8l-9.852 24.629zm20.936 12.042h20.251v-6.158h-13.136v-9.852h12.588v-6.294h-12.588v-8.074h13.136V99.21h-20.251v36.671zm48.575-25.862c0-6.841-4.654-10.809-12.999-10.809h-10.537v36.67h7.115v-14.641h.957l9.852 14.641h8.758l-11.494-15.463c5.335-1.093 8.348-4.788 8.348-10.398zm-14.369 6.158h-2.052v-11.219h2.189c4.515 0 6.839 1.915 6.839 5.473.002 3.693-2.323 5.746-6.976 5.746zM12.924 146.648v3.286h4.057v1.329h-4.057v5.724h-1.458v-11.67h5.648v1.331h-4.19zm10.851-1.331h1.46v11.67h-1.46v-11.67zm8.505-.56l8.752 9.184v-8.624h1.458v12.151l-8.761-9.178v8.697H32.28v-12.23zm23.703 7.976h-4.157l2.077-4.725 2.08 4.725zm.598 1.331l1.331 2.923h1.57l-5.577-12.165-5.574 12.165h1.563l1.335-2.923h5.352zm8.738-9.307l8.761 9.184v-8.624h1.46v12.151l-8.772-9.178v8.697h-1.449v-12.23zm25.787 2.791c-.83-.746-1.98-1.146-3.081-1.146-2.61 0-4.607 2.182-4.607 4.768 0 2.554 1.978 4.735 4.581 4.735 1.147 0 2.242-.43 3.106-1.207v1.721a6.3 6.3 0 0 1-3.063.817c-3.335 0-6.087-2.646-6.087-6.022 0-3.453 2.77-6.149 6.214-6.149 1.024 0 2.059.252 2.934.793v1.69h.003zm6.698-2.231h1.45v11.67h-1.45v-11.67zm15.046 7.416h-4.156l2.088-4.725 2.068 4.725zm.599 1.331l1.334 2.923h1.564l-5.565-12.165-5.577 12.165h1.559l1.331-2.923h5.354zm10.33 1.599h3.547v1.324h-4.998v-11.67h1.451v10.346zm24.167-8.13c-.422-.732-.983-1.103-1.872-1.103-.931 0-1.957.634-1.957 1.659 0 .91.911 1.393 1.634 1.671l.83.328c1.663.647 2.9 1.563 2.9 3.511 0 2.124-1.644 3.637-3.73 3.637-1.891 0-3.362-1.391-3.603-3.265l1.467-.307c-.018 1.282 1.004 2.212 2.251 2.212 1.258 0 2.153-1.05 2.153-2.277 0-1.251-1.004-1.795-2.008-2.216l-.802-.336c-1.336-.574-2.542-1.331-2.542-2.958 0-1.891 1.671-3.024 3.44-3.024 1.295 0 2.365.639 2.996 1.766l-1.157.702zm8.124-2.216h6.274v1.331h-4.814v3.271h4.683v1.33h-4.683v4.414h4.814v1.324h-6.274v-11.67zm14.536 1.3h.373c1.453 0 3.183.263 3.183 2.094 0 1.855-1.619 2.131-3.103 2.131h-.454v-4.225h.001zm2.117 5.297c1.687-.205 2.801-1.594 2.801-3.269 0-1.112-.56-2.215-1.538-2.789-.925-.524-2.041-.539-3.073-.539h-1.764v11.67h1.459v-4.931h.599l3.437 4.931h1.761l-3.682-5.073zm13.681 2.041l3.468-8.638h1.597l-5.065 12.296-5.075-12.296h1.595l3.48 8.638zm11.009-8.638h1.457v11.67h-1.457v-11.67zm17.151 2.231c-.841-.746-1.992-1.146-3.097-1.146-2.607 0-4.605 2.182-4.605 4.768 0 2.554 1.976 4.735 4.578 4.735 1.149 0 2.254-.43 3.124-1.207v1.721c-.938.528-1.994.809-3.071.817-3.325 0-6.09-2.646-6.09-6.022 0-3.453 2.783-6.149 6.213-6.149 1.023 0 2.059.252 2.949.793v1.69h-.001zm6.723-2.231h6.272v1.331h-4.811v3.271h4.673v1.33h-4.673v4.414h4.811v1.324h-6.272v-11.67zm18.251 2.216c-.425-.732-.983-1.103-1.865-1.103-.926 0-1.951.634-1.951 1.659 0 .91.903 1.393 1.624 1.671l.844.328c1.649.647 2.887 1.563 2.887 3.511 0 2.124-1.642 3.637-3.731 3.637-1.883 0-3.364-1.391-3.6-3.265l1.463-.307c-.018 1.282 1.012 2.212 2.262 2.212s2.156-1.05 2.156-2.277c0-1.251-1.015-1.795-2.017-2.216l-.803-.336c-1.336-.574-2.542-1.331-2.542-2.958 0-1.891 1.673-3.024 3.44-3.024a3.35 3.35 0 0 1 3.007 1.766l-1.174.702zm2.666-45.071c0 .282-.192.43-.583.43h-.132v-.84h.142c.387.001.573.134.573.41zm1.145 2.222l-1.064-1.336c.455-.117.716-.449.716-.906 0-.632-.443-.989-1.232-.989h-1.03v3.231h.763v-1.251l.906 1.251h.941zm1.359-1.622c0-1.543-1.255-2.815-2.779-2.815-.37-.003-.738.068-1.081.209a2.8 2.8 0 0 0-1.529 1.525c-.141.343-.213.711-.212 1.081a2.81 2.81 0 0 0 2.822 2.82c1.524-.001 2.779-1.272 2.779-2.82zm-.569.008c0 1.267-.996 2.306-2.223 2.306-1.235 0-2.251-1.033-2.251-2.306 0-1.287 1.007-2.309 2.251-2.309 1.227 0 2.223 1.038 2.223 2.309z"
			fill="#000" />
	</g>
	<defs>
		<radialGradient id="A" cx="0" cy="0" r="1" gradientUnits="userSpaceOnUse"
			gradientTransform="translate(132.567 118.156) scale(19.1559 19.567)">
			<stop stop-color="#fff" stop-opacity="1" />
			<stop offset=".248" stop-color="#fbf0e4" />
			<stop offset="1" stop-color="#db8135" />
		</radialGradient>
	</defs>
</svg>