<svg xmlns="http://www.w3.org/2000/svg" viewBox="0 0 256 256" fill="none">
	<path
		d="M250.955 224.467v.512h.478a.5.5 0 0 0 .256-.065c.031-.022.056-.051.073-.086a.22.22 0 0 0 .023-.11c.001-.037-.006-.074-.023-.108s-.042-.062-.073-.083a.46.46 0 0 0-.256-.065h-.478v.005zm.483-.362a.88.88 0 0 1 .573.166.55.55 0 0 1 .155.203.54.54 0 0 1 .046.251c.003.074-.009.147-.037.216s-.07.131-.124.182c-.128.111-.289.178-.458.19l.64.73h-.493l-.589-.725h-.19v.725h-.413v-1.937h.896l-.006-.001zm-.128 2.606c.216.002.43-.041.628-.128a1.63 1.63 0 0 0 .512-.347c.148-.147.266-.32.347-.512.168-.405.168-.861 0-1.267a1.65 1.65 0 0 0-.347-.512 1.64 1.64 0 0 0-.512-.347 1.61 1.61 0 0 0-.628-.12 1.69 1.69 0 0 0-.64.12 1.66 1.66 0 0 0-.524.347c-.226.232-.379.526-.44.845a1.65 1.65 0 0 0 .099.947c.078.192.194.366.341.512a1.66 1.66 0 0 0 .524.347 1.6 1.6 0 0 0 .64.128m0-3.712a2.14 2.14 0 0 1 1.504.614 2.06 2.06 0 0 1 .453.665 2.05 2.05 0 0 1 0 1.619 2.16 2.16 0 0 1-.453.664c-.196.188-.425.34-.675.448a2.09 2.09 0 0 1-.829.167 2.13 2.13 0 0 1-.84-.167 2.17 2.17 0 0 1-.679-.448 2.15 2.15 0 0 1-.447-.686c-.109-.256-.166-.531-.166-.81s.057-.553.166-.809a2.06 2.06 0 0 1 .453-.664 2.01 2.01 0 0 1 .68-.448 2.12 2.12 0 0 1 .839-.167m-196-7.457c0-3.693 2.419-6.727 6.373-6.727 3.779 0 6.328 2.904 6.328 6.727s-2.55 6.726-6.328 6.726c-3.954 0-6.373-3.033-6.373-6.726zm17.009 0v-10.509h-4.568v2.56c-1.449-1.892-3.647-3.078-6.635-3.078-5.888 0-10.509 4.618-10.509 11.032s4.618 11.032 10.509 11.032c2.987 0 5.187-1.188 6.635-3.078v2.551h4.563v-10.51h.005zm154.358 0c0-3.693 2.419-6.727 6.374-6.727 3.783 0 6.329 2.904 6.329 6.727s-2.546 6.726-6.329 6.726c-3.954 0-6.374-3.033-6.374-6.726zm17.014 0v-18.944h-4.573v10.995c-1.449-1.892-3.646-3.078-6.635-3.078-5.888 0-10.509 4.618-10.509 11.032s4.618 11.032 10.509 11.032c2.989 0 5.186-1.188 6.635-3.078v2.551h4.573v-10.51zm-114.673-6.943c2.944 0 4.834 1.846 5.317 5.096h-10.9c.487-3.034 2.329-5.096 5.584-5.096m.091-4.096c-6.157 0-10.464 4.48-10.464 11.032 0 6.681 4.48 11.033 10.77 11.033 3.164 0 6.062-.79 8.612-2.944l-2.239-3.386c-1.761 1.408-4.004 2.198-6.112 2.198-2.944 0-5.624-1.363-6.283-5.146h15.599c.045-.568.091-1.141.091-1.756-.046-6.55-4.096-11.032-9.976-11.032m55.155 11.032c0-3.693 2.419-6.726 6.373-6.726 3.778 0 6.328 2.903 6.328 6.726s-2.55 6.727-6.328 6.727c-3.954 0-6.375-3.034-6.375-6.727m17.009 0v-10.501h-4.566v2.56c-1.454-1.892-3.646-3.078-6.635-3.078-5.888 0-10.509 4.618-10.509 11.032s4.618 11.032 10.509 11.032c2.989 0 5.181-1.188 6.635-3.078v2.551h4.567v-10.51l-.001-.008zm-42.806 0c0 6.373 4.437 11.033 11.208 11.033 3.164 0 5.272-.704 7.552-2.505l-2.194-3.693c-1.715 1.232-3.516 1.892-5.504 1.892-3.647-.045-6.328-2.682-6.328-6.727s2.681-6.68 6.328-6.726c1.983 0 3.784.659 5.504 1.892l2.194-3.693c-2.284-1.801-4.392-2.505-7.552-2.505-6.771 0-11.208 4.658-11.208 11.032zm58.893-11.032c-2.635 0-4.352 1.233-5.538 3.078v-2.547h-4.528v21.007h4.574v-11.776c0-3.476 1.493-5.408 4.48-5.408a7.41 7.41 0 0 1 2.857.529l1.408-4.306c-1.012-.398-2.33-.573-3.255-.573m-122.45 2.197c-2.198-1.448-5.226-2.197-8.567-2.197-5.322 0-8.749 2.551-8.749 6.725 0 3.425 2.551 5.538 7.249 6.198l2.158.307c2.505.352 3.688 1.011 3.688 2.198 0 1.624-1.664 2.551-4.788 2.551-3.164 0-5.448-1.012-6.987-2.198l-2.147 3.562c2.505 1.846 5.669 2.726 9.096 2.726 6.067 0 9.583-2.856 9.583-6.856 0-3.693-2.767-5.625-7.34-6.284l-2.153-.312c-1.978-.256-3.562-.654-3.562-2.062 0-1.536 1.494-2.461 4-2.461 2.682 0 5.277 1.012 6.55 1.801l1.978-3.692-.008-.006zm58.945-2.193c-2.636 0-4.352 1.232-5.534 3.078v-2.555h-4.527v21.007h4.568v-11.776c0-3.476 1.494-5.408 4.48-5.408a7.41 7.41 0 0 1 2.857.529l1.408-4.306c-1.011-.398-2.329-.573-3.255-.573m-38.981.527h-7.47v-6.373h-4.618v6.373h-4.261v4.175h4.261v9.584c0 4.874 1.892 7.777 7.296 7.777 1.983 0 4.266-.614 5.715-1.624l-1.32-3.912c-1.363.79-2.857 1.188-4.044 1.188-2.284 0-3.029-1.408-3.029-3.516v-9.493h7.47v-4.179zm-68.299 21.013v-13.184c0-4.966-3.164-8.306-8.265-8.351-2.682-.045-5.448.79-7.384 3.737-1.449-2.329-3.733-3.737-6.943-3.737-2.244 0-4.436.659-6.153 3.119v-2.597h-4.572v21.007h4.608v-11.648c0-3.646 2.022-5.584 5.146-5.584 3.034 0 4.568 1.977 4.568 5.538v11.692h4.618v-11.648c0-3.647 2.108-5.585 5.141-5.585 3.119 0 4.608 1.978 4.608 5.539v11.691l4.628.011z"
		fill="#231f20" />
	<path
		d="M253.56 156.156v-3.072h-.8l-.925 2.108-.92-2.108h-.803v3.072h.568v-2.314l.866 1.997h.588l.866-2.002v2.319h.563-.003zm-5.075 0v-2.546h1.024v-.518h-2.616v.518h1.024v2.546h.563.005z"
		fill="#f79410" />
	<path d="M162.633 169.331h-69.23V44.915h69.231l-.001 124.416z" fill="#ff5f00" />
	<path
		d="M97.792 107.126c0-25.238 11.817-47.72 30.218-62.208A78.78 78.78 0 0 0 79.116 28C35.42 28 0 63.425 0 107.126s35.42 79.126 79.116 79.126c17.739.026 34.967-5.935 48.897-16.918-18.4-14.486-30.22-36.969-30.22-62.208z"
		fill="#eb001b" />
	<path
		d="M256.032 107.126c0 43.7-35.42 79.126-79.115 79.126-17.741.026-34.971-5.935-48.903-16.918 18.407-14.488 30.224-36.969 30.224-62.208s-11.817-47.72-30.224-62.208C141.946 33.935 159.175 27.974 176.915 28c43.696 0 79.116 35.425 79.116 79.126"
		fill="#f79e1b" />
</svg>