<svg xmlns="http://www.w3.org/2000/svg" viewBox="0 0 256 256" fill="none">
	<path
		d="M166.742 86.615c-18.177 0-34.421 9.402-34.421 26.772 0 19.92 28.809 21.295 28.809 31.303 0 4.214-4.839 7.986-13.104 7.986-11.729 0-20.496-5.271-20.496-5.271l-3.751 17.529s10.099 4.452 23.507 4.452c19.873 0 35.511-9.864 35.511-27.531 0-21.049-28.929-22.384-28.929-31.673 0-3.301 3.973-6.917 12.214-6.917 9.299 0 16.885 3.833 16.885 3.833l3.671-16.93s-8.254-3.554-19.896-3.554zM.44 87.893L0 90.448s7.647 1.396 14.535 4.182c8.868 3.194 9.5 5.054 10.993 10.831l16.275 62.607H63.62l33.611-80.175H75.464l-21.597 54.511-8.813-46.207c-.808-5.288-4.902-8.305-9.913-8.305H.44zm105.543 0l-17.075 80.175h20.756l17.016-80.176h-20.697 0zm115.766 0c-5.005 0-7.657 2.674-9.603 7.347l-30.409 72.829h21.767l4.211-12.139h26.518l2.561 12.139H256l-16.755-80.175h-17.496zm2.831 21.66l6.452 30.086h-17.285l10.833-30.086z"
		fill="#1434cb" />
</svg>